<svg xmlns="http://www.w3.org/2000/svg" xmlns:xlink="http://www.w3.org/1999/xlink" xmlns:lucid="lucid" width="2082" height="797.67"><g transform="translate(161 -39)" lucid:page-tab-id="0_0"><path d="M-500 0h2500v1000H-500z" fill="#fff"/><path d="M240 226a6 6 0 0 1 6-6h148a6 6 0 0 1 6 6v108a6 6 0 0 1-6 6H246a6 6 0 0 1-6-6z" stroke="#282c33" stroke-width="2" fill="#fff"/><use xlink:href="#a" transform="matrix(1,0,0,1,252,232) translate(33.46296296296296 53.77777777777778)"/><path d="M1360 206a6 6 0 0 1 6-6h148a6 6 0 0 1 6 6v110.67a6 6 0 0 1-6 6h-148a6 6 0 0 1-6-6z" stroke="#282c33" stroke-width="2" fill="#fff"/><use xlink:href="#b" transform="matrix(1,0,0,1,1372,212) translate(33.46296296296296 20.87152777777778)"/><use xlink:href="#c" transform="matrix(1,0,0,1,1372,212) translate(26.015432098765437 45.760416666666664)"/><use xlink:href="#d" transform="matrix(1,0,0,1,1372,212) translate(12.790123456790141 67.98263888888889)"/><use xlink:href="#e" transform="matrix(1,0,0,1,1372,212) translate(107.45679012345678 67.98263888888889)"/><use xlink:href="#f" transform="matrix(1,0,0,1,1372,212) translate(16.22222222222223 89.3159722222222)"/><path d="M640 66a6 6 0 0 1 6-6h148a6 6 0 0 1 6 6v108a6 6 0 0 1-6 6H646a6 6 0 0 1-6-6z" stroke="#282c33" stroke-width="2" fill="#fff"/><use xlink:href="#g" transform="matrix(1,0,0,1,652,72) translate(21.179012345679013 53.77777777777778)"/><path d="M260 526a6 6 0 0 1 6-6h148a6 6 0 0 1 6 6v108a6 6 0 0 1-6 6H266a6 6 0 0 1-6-6z" stroke="#282c33" stroke-width="2" fill="#fff"/><use xlink:href="#h" transform="matrix(1,0,0,1,272,532) translate(21.179012345679013 53.77777777777778)"/><path d="M700 526a6 6 0 0 1 6-6h148a6 6 0 0 1 6 6v108a6 6 0 0 1-6 6H706a6 6 0 0 1-6-6z" stroke="#282c33" stroke-width="2" fill="#fff"/><use xlink:href="#i" transform="matrix(1,0,0,1,712,532) translate(8.21604938271605 26.77777777777778)"/><use xlink:href="#j" transform="matrix(1,0,0,1,712,532) translate(28.52469135802469 53.44444444444445)"/><use xlink:href="#k" transform="matrix(1,0,0,1,712,532) translate(11.919753086419746 80.11111111111111)"/><path d="M636.5 78.47H280.1l-.65.06-.54.13-.5.2-.47.3-.42.35-.35.43-.28.47-.22.5-.12.55-.05.65v112.04h-4.96V81.9l.1-1.23.3-1.3.52-1.22.7-1.14.86-1 1-.86 1.15-.7 1.23-.5 1.3-.32 1.22-.1h356.6z" stroke="#008a0e" stroke-width=".05" fill="#008a0e"/><path d="M639 78.47h-2.56v-4.94H639z" fill="#008a0e"/><path stroke="#008a0e" stroke-width=".05" fill="#008a0e"/><path d="M274 210.9l-4.63-14.26h9.26z" fill="#008a0e"/><path d="M274 218.92l-8.04-24.75h16.08zm-1.23-19.8l1.23 3.78 1.23-3.78z" stroke="#008a0e" stroke-width=".05" fill="#008a0e"/><use xlink:href="#l" transform="matrix(1,0,0,1,334.52056691602485,50.666667592584034) translate(0 14.222222222222223)"/><use xlink:href="#m" transform="matrix(1,0,0,1,334.52056691602485,50.666667592584034) translate(79.90123456790124 14.222222222222223)"/><use xlink:href="#n" transform="matrix(1,0,0,1,334.52056691602485,50.666667592584034) translate(175.55555555555557 14.222222222222223)"/><path d="M698.5 580H437.38" stroke="#000" stroke-opacity="0" fill="none"/><path d="M422.62 580l14.26-4.63v9.26z" stroke="#000" stroke-opacity="0" fill-opacity="0"/><path d="M-140 212a12 12 0 0 1 12-12h236a12 12 0 0 1 12 12v181.6a12 12 0 0 1-12 12h-236a12 12 0 0 1-12-12z" stroke="#dfe3e8" stroke-width="2" fill="#fff"/><path d="M-53.82 304.65c0 10.2-8.27 18.46-18.47 18.46s-18.45-8.25-18.45-18.45 8.26-18.47 18.46-18.47c10.2 0 18.48 8.27 18.48 18.47z" stroke="#000" stroke-opacity=".25" fill="#e81313"/><path d="M-53.82 353.9c0 10.2-8.27 18.46-18.47 18.46s-18.45-8.27-18.45-18.47 8.26-18.47 18.46-18.47c10.2 0 18.48 8.26 18.48 18.46z" stroke="#000" stroke-opacity=".25" fill="#008a0e"/><use xlink:href="#o" transform="matrix(1,0,0,1,-90.75449101796407,236.93413173652695) translate(0 22.162070181991737)"/><use xlink:href="#p" transform="matrix(1,0,0,1,-35.353293413173645,286.1796407185629) translate(0 21.775971398333354)"/><use xlink:href="#q" transform="matrix(1,0,0,1,-35.353293413173645,335.4251497005988) translate(0 21.775971398333354)"/><path d="M930.66 582.48H863.5v-4.96h67.16zm511.8-156.08l.07.65.13.54.2.5.3.47.35.42.43.35.47.28.5.22.55.12.65.05h8l1.23.1 1.3.3 1.22.52 1.14.7 1 .86.86 1 .7 1.15.5 1.23.32 1.3.1 1.22v135.7l-.1 1.23-.3 1.3-.52 1.22-.7 1.14-.86 1-1 .86-1.15.7-1.23.5-1.3.32-1.22.1h-109.6v-4.96h109.4l.65-.05.54-.13.5-.2.47-.3.42-.35.35-.43.28-.47.2-.5.14-.55.06-.65V438.6l-.06-.65-.13-.54-.2-.5-.3-.47-.35-.42-.43-.35-.47-.28-.5-.22-.55-.12-.65-.05h-8l-1.23-.1-1.3-.3-1.22-.52-1.14-.7-1-.86-.86-1-.7-1.15-.5-1.23-.32-1.3-.1-1.22v-78.08h4.95z" stroke="#e81313" stroke-width=".05" fill="#e81313"/><path d="M863.56 582.48H861v-4.96h2.56z" fill="#e81313"/><path stroke="#e81313" stroke-width=".05" fill="#e81313"/><path d="M1444.63 346.02h-9.27l4.64-14.26z" fill="#e81313"/><path d="M1448.04 348.5h-16.08l8.04-24.75zm-9.27-4.95h2.46l-1.23-3.78z" stroke="#e81313" stroke-width=".05" fill="#e81313"/><use xlink:href="#r" transform="matrix(1,0,0,1,930.6651233464395,569.3333333333334) translate(0 14.222222222222223)"/><use xlink:href="#s" transform="matrix(1,0,0,1,930.6651233464395,569.3333333333334) translate(47.35802469135803 14.222222222222223)"/><use xlink:href="#t" transform="matrix(1,0,0,1,930.6651233464395,569.3333333333334) translate(68.98765432098766 14.222222222222223)"/><use xlink:href="#u" transform="matrix(1,0,0,1,930.6651233464395,569.3333333333334) translate(156.6913580246914 14.222222222222223)"/><use xlink:href="#v" transform="matrix(1,0,0,1,930.6651233464395,569.3333333333334) translate(178.32098765432102 14.222222222222223)"/><use xlink:href="#w" transform="matrix(1,0,0,1,930.6651233464395,569.3333333333334) translate(214.76543209876547 14.222222222222223)"/><use xlink:href="#x" transform="matrix(1,0,0,1,930.6651233464395,569.3333333333334) translate(254.22222222222226 14.222222222222223)"/><use xlink:href="#y" transform="matrix(1,0,0,1,930.6651233464395,569.3333333333334) translate(298.51851851851853 14.222222222222223)"/><use xlink:href="#z" transform="matrix(1,0,0,1,930.6651233464395,569.3333333333334) translate(319.2098765432099 14.222222222222223)"/><use xlink:href="#A" transform="matrix(1,0,0,1,930.6651233464395,569.3333333333334) translate(388.1975308641976 14.222222222222223)"/><path d="M813.53 217.47H561.6l-.65.05-.54.13-.5.2-.47.3-.42.35-.35.43-.28.47-.22.5-.12.54-.05.65v353l-.1 1.23-.3 1.3-.52 1.22-.7 1.14-.86 1-1 .86-1.15.7-1.23.5-1.3.32-1.22.1H445.86v-4.96H549.4l.65-.05.54-.13.5-.2.47-.3.42-.35.35-.43.28-.47.22-.5.12-.55.05-.65v-353l.1-1.23.3-1.3.52-1.23.7-1.13.86-1 1-.87 1.15-.7 1.23-.5 1.3-.32 1.22-.08h252.13zm542.97 0h-213.42v-4.95h213.42z" stroke="#008a0e" stroke-width=".05" fill="#008a0e"/><path d="M1359 217.47h-2.56v-4.95h2.56z" fill="#008a0e"/><path stroke="#008a0e" stroke-width=".05" fill="#008a0e"/><path d="M443.36 584.63L429.1 580l14.26-4.63z" fill="#008a0e"/><path d="M445.83 588.04L421.08 580l24.75-8.04zM437.1 580l3.78 1.23v-2.46z" stroke="#008a0e" stroke-width=".05" fill="#008a0e"/><use xlink:href="#B" transform="matrix(1,0,0,1,813.531881983758,203.25925900161712) translate(0 15.644444444444439)"/><use xlink:href="#C" transform="matrix(1,0,0,1,813.531881983758,203.25925900161712) translate(55.25925925925927 15.644444444444439)"/><use xlink:href="#D" transform="matrix(1,0,0,1,813.531881983758,203.25925900161712) translate(81.82716049382717 15.644444444444439)"/><use xlink:href="#E" transform="matrix(1,0,0,1,813.531881983758,203.25925900161712) translate(113.33333333333334 15.644444444444439)"/><use xlink:href="#F" transform="matrix(1,0,0,1,813.531881983758,203.25925900161712) translate(172.44444444444446 15.644444444444439)"/><use xlink:href="#G" transform="matrix(1,0,0,1,813.531881983758,203.25925900161712) translate(194.07407407407408 15.644444444444439)"/><use xlink:href="#H" transform="matrix(1,0,0,1,813.531881983758,203.25925900161712) translate(275.33827160493826 15.644444444444439)"/><path d="M895.4 263.8H786.1l-.65.06-.54.13-.5.2-.47.3-.42.35-.35.42-.28.47-.22.5-.12.54-.05.65v226.7h-4.96v-226.9l.1-1.22.3-1.3.52-1.22.7-1.13.86-1.02 1-.86 1.15-.7 1.23-.5 1.3-.3 1.22-.1h109.5zm461.1 0h-131.53v-4.94h131.53z" stroke="#008a0e" stroke-width=".05" fill="#008a0e"/><path d="M1359 263.8h-2.56v-4.94h2.56z" fill="#008a0e"/><path stroke="#008a0e" stroke-width=".05" fill="#008a0e"/><path d="M780 510.9l-4.63-14.26h9.26z" fill="#008a0e"/><path d="M780 518.92l-8.04-24.75h16.08zm-1.23-19.8l1.23 3.78 1.23-3.78z" stroke="#008a0e" stroke-width=".05" fill="#008a0e"/><use xlink:href="#I" transform="matrix(1,0,0,1,895.4151502141649,249.6) translate(0 15.644444444444439)"/><use xlink:href="#J" transform="matrix(1,0,0,1,895.4151502141649,249.6) translate(55.25925925925927 15.644444444444439)"/><use xlink:href="#K" transform="matrix(1,0,0,1,895.4151502141649,249.6) translate(81.82716049382717 15.644444444444439)"/><use xlink:href="#L" transform="matrix(1,0,0,1,895.4151502141649,249.6) translate(113.33333333333334 15.644444444444439)"/><use xlink:href="#M" transform="matrix(1,0,0,1,895.4151502141649,249.6) translate(172.44444444444446 15.644444444444439)"/><use xlink:href="#G" transform="matrix(1,0,0,1,895.4151502141649,249.6) translate(194.07407407407408 15.644444444444439)"/><use xlink:href="#H" transform="matrix(1,0,0,1,895.4151502141649,249.6) translate(275.33827160493826 15.644444444444439)"/><path d="M1442 117.62l1.3.3 1.22.52 1.13.7 1 .86.88 1 .7 1.15.5 1.23.32 1.3.1 1.22v48.24h-4.96V126.1l-.06-.65-.13-.54-.2-.5-.3-.47-.35-.42-.42-.35-.47-.28-.5-.22-.54-.12-.65-.06h-135.55v-4.94h135.74zm-638.5 4.85v-4.94h132.42v4.94z" stroke="#e81313" stroke-width=".05" fill="#e81313"/><path d="M803.56 122.47H801v-4.94h2.56z" fill="#e81313"/><path stroke="#e81313" stroke-width=".05" fill="#e81313"/><path d="M1446.67 190.9l-4.64-14.26h9.27z" fill="#e81313"/><path d="M1446.67 198.92l-8.05-24.75h16.1zm-1.23-19.8l1.23 3.78 1.22-3.78z" stroke="#e81313" stroke-width=".05" fill="#e81313"/><use xlink:href="#N" transform="matrix(1,0,0,1,935.9182612570964,108.26666666666667) translate(0 15.644444444444439)"/><use xlink:href="#O" transform="matrix(1,0,0,1,935.9182612570964,108.26666666666667) translate(57.135802469135804 15.644444444444439)"/><use xlink:href="#P" transform="matrix(1,0,0,1,935.9182612570964,108.26666666666667) translate(85.67901234567901 15.644444444444439)"/><use xlink:href="#G" transform="matrix(1,0,0,1,935.9182612570964,108.26666666666667) translate(158.66666666666669 15.644444444444439)"/><use xlink:href="#Q" transform="matrix(1,0,0,1,935.9182612570964,108.26666666666667) translate(239.93086419753087 15.644444444444439)"/><use xlink:href="#R" transform="matrix(1,0,0,1,935.9182612570964,108.26666666666667) translate(261.6592592592593 15.644444444444439)"/><use xlink:href="#S" transform="matrix(1,0,0,1,935.9182612570964,108.26666666666667) translate(333.2543209876543 15.644444444444439)"/><path d="M696.5 580H665a6 6 0 0 0-6 6v89a6 6 0 0 1-6 6H346a6 6 0 0 1-6-6v-9.14" stroke="#e81313" stroke-width="5" fill="none"/><path d="M699 582.48h-2.56v-4.96H699z" stroke="#e81313" stroke-width=".05" fill="#e81313"/><path d="M340 649.1l4.63 14.26h-9.26z" stroke="#e81313" stroke-width="5" fill="#e81313"/><use xlink:href="#T" transform="matrix(1,0,0,1,315.25116891021185,689.6352049156245) translate(0 15.64444444444444)"/><use xlink:href="#U" transform="matrix(1,0,0,1,315.25116891021185,689.6352049156245) translate(96.52839506172836 15.64444444444444)"/><use xlink:href="#V" transform="matrix(1,0,0,1,315.25116891021185,689.6352049156245) translate(118.25679012345675 15.64444444444444)"/><use xlink:href="#W" transform="matrix(1,0,0,1,315.25116891021185,689.6352049156245) translate(203.92098765432092 15.64444444444444)"/><use xlink:href="#X" transform="matrix(1,0,0,1,315.25116891021185,689.6352049156245) translate(247.26913580246907 15.64444444444444)"/><use xlink:href="#Y" transform="matrix(1,0,0,1,315.25116891021185,689.6352049156245) translate(291.75802469135795 15.64444444444444)"/><use xlink:href="#Z" transform="matrix(1,0,0,1,315.25116891021185,689.6352049156245) translate(335.1604938271604 15.64444444444444)"/><path d="M408.48 494.14h-4.96v-53.47h4.96zm-20-74.8h-4.96v-11.28h4.96zm0-32.6h-4.96V343.5h4.96z" stroke="#e81313" stroke-width=".05" fill="#e81313"/><path d="M388.48 343.56h-4.96V341h4.96z" fill="#e81313"/><path stroke="#e81313" stroke-width=".05" fill="#e81313"/><path d="M406 510.9l-4.63-14.26h9.26z" fill="#e81313"/><path d="M406 518.92l-8.04-24.75h16.08zm-1.23-19.8l1.23 3.78 1.23-3.78z" stroke="#e81313" stroke-width=".05" fill="#e81313"/><use xlink:href="#aa" transform="matrix(1,0,0,1,277.62962489983596,386.7257551342287) translate(0 14.222222222222223)"/><use xlink:href="#ab" transform="matrix(1,0,0,1,277.62962489983596,386.7257551342287) translate(47.35802469135803 14.222222222222223)"/><use xlink:href="#ac" transform="matrix(1,0,0,1,277.62962489983596,386.7257551342287) translate(68.98765432098766 14.222222222222223)"/><use xlink:href="#ad" transform="matrix(1,0,0,1,277.62962489983596,386.7257551342287) translate(104.49382716049384 14.222222222222223)"/><use xlink:href="#ae" transform="matrix(1,0,0,1,277.62962489983596,386.7257551342287) translate(120.24691358024693 14.222222222222223)"/><use xlink:href="#af" transform="matrix(1,0,0,1,277.62962489983596,386.7257551342287) translate(152.69135802469137 14.222222222222223)"/><path d="M290.48 516.5h-4.96v-75.83h4.96zm-20-97.17h-4.96v-53.47h4.96z" stroke="#e81313" stroke-width=".05" fill="#e81313"/><path d="M290.48 519h-4.96v-2.56h4.96z" fill="#e81313"/><path stroke="#e81313" stroke-width=".05" fill="#e81313"/><path d="M272.63 363.36h-9.26L268 349.1z" fill="#e81313"/><path d="M276.04 365.83h-16.08l8.04-24.75zm-9.27-4.95h2.46L268 357.1z" stroke="#e81313" stroke-width=".05" fill="#e81313"/><g><use xlink:href="#ag" transform="matrix(1,0,0,1,111.77777710215963,419.3333684684689) translate(0 14.222222222222223)"/><use xlink:href="#ah" transform="matrix(1,0,0,1,111.77777710215963,419.3333684684689) translate(80.93827160493828 14.222222222222223)"/><use xlink:href="#ai" transform="matrix(1,0,0,1,111.77777710215963,419.3333684684689) translate(128.24691358024694 14.222222222222223)"/><use xlink:href="#aj" transform="matrix(1,0,0,1,111.77777710215963,419.3333684684689) translate(205.13580246913585 14.222222222222223)"/><use xlink:href="#ak" transform="matrix(1,0,0,1,111.77777710215963,419.3333684684689) translate(295.90123456790127 14.222222222222223)"/></g><path d="M444.48 532.14h-4.96v-91.47h4.7v-21.34h-4.7v-11.27h4.96zm447-235.66H776.1l-.65.05-.54.13-.5.2-.47.3-.42.35-.35.43-.28.47-.22.5-.12.55-.05.65v84l-.1 1.23-.3 1.3-.52 1.22-.7 1.14-.86 1-1 .86-1.15.7-1.23.5-1.3.32-1.22.1H494.37v-4.96H763.9l.65-.05.54-.13.5-.2.47-.3.42-.35.35-.43.28-.47.22-.5.12-.55.05-.65v-84l.1-1.23.3-1.3.52-1.22.7-1.14.86-1 1-.86 1.15-.7 1.23-.5 1.3-.32 1.22-.1h115.57zm465.02 0h-78.66v-4.96h78.66z" stroke="#e81313" stroke-width=".05" fill="#e81313"/><path d="M1359 296.48h-2.56v-4.96h2.56z" fill="#e81313"/><path stroke="#e81313" stroke-width=".05" fill="#e81313"/><path d="M443.82 536.52l-14.86-1.98 13.2-7.14z" fill="#e81313"/><path d="M446.88 539.42l-25.8-3.43 22.9-12.4zm-10.05-6.33l3.95.52-.45-2.42z" stroke="#e81313" stroke-width=".05" fill="#e81313"/><g><use xlink:href="#N" transform="matrix(1,0,0,1,891.4648154517452,283.333332429647) translate(0 14.222222222222223)"/><use xlink:href="#O" transform="matrix(1,0,0,1,891.4648154517452,283.333332429647) translate(57.135802469135804 14.222222222222223)"/><use xlink:href="#P" transform="matrix(1,0,0,1,891.4648154517452,283.333332429647) translate(85.67901234567901 14.222222222222223)"/><use xlink:href="#al" transform="matrix(1,0,0,1,891.4648154517452,283.333332429647) translate(158.66666666666669 14.222222222222223)"/><use xlink:href="#u" transform="matrix(1,0,0,1,891.4648154517452,283.333332429647) translate(234.56790123456793 14.222222222222223)"/><use xlink:href="#am" transform="matrix(1,0,0,1,891.4648154517452,283.333332429647) translate(256.1975308641976 14.222222222222223)"/><use xlink:href="#an" transform="matrix(1,0,0,1,891.4648154517452,283.333332429647) translate(341.13580246913585 14.222222222222223)"/></g><path d="M782.48 813.9l.05.65.13.54.2.5.3.47.35.42.43.35.47.28.5.22.55.12.65.05h29.18v4.96H785.9l-1.23-.1-1.3-.3-1.22-.52-1.14-.7-1-.86-.86-1-.7-1.15-.5-1.23-.32-1.3-.1-1.22V643.5h4.96zm373.35-206.28l1.3.3 1.22.52 1.14.7 1 .86.86 1 .7 1.15.5 1.23.32 1.3.1 1.22v198.2l-.1 1.23-.3 1.3-.52 1.22-.7 1.14-.86 1-1 .86-1.15.7-1.23.5-1.3.32-1.22.1h-25.88v-4.96h25.68l.65-.05.54-.13.5-.2.47-.3.42-.35.35-.43.28-.47.2-.5.14-.55.06-.65V616.1l-.06-.65-.13-.54-.2-.5-.3-.47-.35-.42-.43-.35-.47-.28-.5-.22-.55-.12-.65-.05H885.86v-4.96h268.74z" stroke="#e81313" stroke-width=".05" fill="#e81313"/><path d="M782.48 643.56h-4.96V641h4.96z" fill="#e81313"/><path stroke="#e81313" stroke-width=".05" fill="#e81313"/><path d="M883.36 614.63L869.1 610l14.26-4.63z" fill="#e81313"/><path d="M885.83 618.04L861.08 610l24.75-8.04zM877.1 610l3.78 1.23v-2.46z" stroke="#e81313" stroke-width=".05" fill="#e81313"/><g><use xlink:href="#ao" transform="matrix(1,0,0,1,815.283950617284,809.3333333333334) translate(0 14.222222222222223)"/><use xlink:href="#ap" transform="matrix(1,0,0,1,815.283950617284,809.3333333333334) translate(52.296296296296305 14.222222222222223)"/><use xlink:href="#aq" transform="matrix(1,0,0,1,815.283950617284,809.3333333333334) translate(157.679012345679 14.222222222222223)"/><use xlink:href="#ar" transform="matrix(1,0,0,1,815.283950617284,809.3333333333334) translate(220.74074074074076 14.222222222222223)"/></g><path d="M290.48 814.1l-.1 1.23-.3 1.3-.52 1.22-.7 1.14-.86 1-1 .86-1.15.7-1.23.5-1.3.32-1.22.1H-64.1l-1.23-.1-1.3-.3-1.22-.52-1.14-.7-1-.86-.86-1-.7-1.15-.5-1.23-.32-1.3-.1-1.22V678h4.95v135.9l.06.65.13.54.2.5.3.47.35.42.43.35.47.28.5.22.55.12.65.05h345.8l.65-.05.54-.13.5-.2.47-.3.42-.35.35-.43.28-.47.22-.5.12-.55.05-.65V665.86h4.96zM256.5 546.47H-63.9l-.65.06-.54.13-.5.2-.47.3-.42.35-.35.43-.28.47-.22.5-.12.55-.06.65v106.56h-4.94V549.9l.1-1.23.3-1.3.5-1.22.7-1.14.87-1 1-.86 1.15-.7 1.23-.5 1.3-.32 1.22-.1h320.6z" stroke="#e81313" stroke-width=".05" fill="#e81313"/><path d="M259 546.48h-2.56v-4.96H259z" fill="#e81313"/><path stroke="#e81313" stroke-width=".05" fill="#e81313"/><path d="M292.63 663.36h-9.26L288 649.1z" fill="#e81313"/><path d="M296.04 665.83h-16.08l8.04-24.75zm-9.27-4.95h2.46L288 657.1z" stroke="#e81313" stroke-width=".05" fill="#e81313"/><g><use xlink:href="#as" transform="matrix(1,0,0,1,-148.37037037037038,656.6587015120444) translate(0 14.222222222222223)"/><use xlink:href="#O" transform="matrix(1,0,0,1,-148.37037037037038,656.6587015120444) translate(42.41975308641976 14.222222222222223)"/><use xlink:href="#at" transform="matrix(1,0,0,1,-148.37037037037038,656.6587015120444) translate(70.96296296296296 14.222222222222223)"/></g><path d="M436.33 277.62l1.3.3 1.22.52 1.14.7 1 .86.86 1 .7 1.15.5 1.23.32 1.3.1 1.22v71.67l.05.65.13.53.2.5.3.48.35.42.43.36.47.3.5.2.55.14.65.05h419.64v4.94H446.9l-1.23-.1-1.3-.3-1.22-.5-1.14-.7-1-.88-.86-1-.7-1.14-.5-1.23-.32-1.3-.1-1.24V286.1l-.05-.65-.13-.54-.2-.5-.3-.47-.35-.42-.43-.35-.47-.28-.5-.22-.55-.12-.65-.05h-9.04v-4.96h9.24zm956.14 80.14l-.1 1.23-.3 1.3-.5 1.22-.7 1.13-.87 1.02-1 .86-1.15.7-1.23.5-1.3.3-1.22.1h-115.88v-4.94h115.68l.65-.06.54-.13.5-.2.47-.3.42-.35.35-.42.28-.47.2-.5.14-.54.06-.65v-31.4h4.94z" stroke="#e81313" stroke-width=".05" fill="#e81313"/><path d="M1392.47 326.23h-4.94v-2.56h4.94z" fill="#e81313"/><path stroke="#e81313" stroke-width=".05" fill="#e81313"/><path d="M423.36 284.63L409.1 280l14.26-4.63z" fill="#e81313"/><path d="M425.83 288.04L401.08 280l24.75-8.04zM417.1 280l3.78 1.23v-2.46z" stroke="#e81313" stroke-width=".05" fill="#e81313"/><g><use xlink:href="#au" transform="matrix(1,0,0,1,866.7430911368391,352.9999841171211) translate(0 14.222222222222223)"/><use xlink:href="#av" transform="matrix(1,0,0,1,866.7430911368391,352.9999841171211) translate(63.40740740740742 14.222222222222223)"/><use xlink:href="#aw" transform="matrix(1,0,0,1,866.7430911368391,352.9999841171211) translate(94.9135802469136 14.222222222222223)"/><use xlink:href="#ax" transform="matrix(1,0,0,1,866.7430911368391,352.9999841171211) translate(139.2098765432099 14.222222222222223)"/><use xlink:href="#ay" transform="matrix(1,0,0,1,866.7430911368391,352.9999841171211) translate(175.75308641975312 14.222222222222223)"/><use xlink:href="#u" transform="matrix(1,0,0,1,866.7430911368391,352.9999841171211) translate(249.67901234567907 14.222222222222223)"/><use xlink:href="#am" transform="matrix(1,0,0,1,866.7430911368391,352.9999841171211) translate(271.3086419753087 14.222222222222223)"/><use xlink:href="#an" transform="matrix(1,0,0,1,866.7430911368391,352.9999841171211) translate(356.246913580247 14.222222222222223)"/></g><path d="M1740 206a6 6 0 0 1 6-6h148a6 6 0 0 1 6 6v108a6 6 0 0 1-6 6h-148a6 6 0 0 1-6-6z" stroke="#282c33" stroke-width="2" fill="#fff"/><g><use xlink:href="#az" transform="matrix(1,0,0,1,1752,211.99999999999994) translate(33.52469135802469 38.77777777777778)"/><use xlink:href="#aA" transform="matrix(1,0,0,1,1752,211.99999999999994) translate(34.111111111111114 65.44444444444446)"/></g><path d="M1572.53 222.47h-49.03v-4.94h49.03zm141.6 0h-90.34v-4.94h90.34z" stroke="#3a414a" stroke-width=".05" fill="#3a414a"/><path d="M1523.56 222.47H1521v-4.94h2.56z" fill="#3a414a"/><path stroke="#3a414a" stroke-width=".05" fill="#3a414a"/><path d="M1730.9 220l-14.26 4.63v-9.26z" fill="#3a414a"/><path d="M1738.92 220l-24.75 8.04v-16.08zm-19.8 1.23l3.78-1.23-3.78-1.23z" stroke="#3a414a" stroke-width=".05" fill="#3a414a"/><g><use xlink:href="#aB" transform="matrix(1,0,0,1,1572.5276853918433,209.33333423702678) translate(0 14.222222222222223)"/></g><path d="M1570.7 290.48h-24.84v-4.96h24.83zm165.8 0h-3.2v-4.96h3.2z" stroke="#3a414a" stroke-width=".05" fill="#3a414a"/><path d="M1739 290.48h-2.56v-4.96h2.56z" fill="#3a414a"/><path stroke="#3a414a" stroke-width=".05" fill="#3a414a"/><path d="M1543.36 292.63L1529.1 288l14.26-4.63z" fill="#3a414a"/><path d="M1545.83 296.04l-24.75-8.04 24.75-8.04zm-8.73-8.04l3.78 1.23v-2.46z" stroke="#3a414a" stroke-width=".05" fill="#3a414a"/><g><use xlink:href="#aC" transform="matrix(1,0,0,1,1570.6913580246915,277.33332685178146) translate(0 14.222222222222223)"/><use xlink:href="#aD" transform="matrix(1,0,0,1,1570.6913580246915,277.33332685178146) translate(123.16049382716051 14.222222222222223)"/></g><path d="M340.25 122.47H326.1l-.65.06-.54.13-.5.2-.47.3-.42.35-.35.43-.28.47-.22.5-.12.55-.05.65v90.4h-4.96v-90.6l.1-1.23.3-1.3.52-1.22.7-1.14.86-1 1-.86 1.15-.7 1.23-.5 1.3-.32 1.22-.1h14.35zm273.9 0h-30.4v-4.94h30.4z" stroke="#e81313" stroke-width=".05" fill="#e81313"/><path d="M322.48 219h-4.96v-2.56h4.96z" fill="#e81313"/><path stroke="#e81313" stroke-width=".05" fill="#e81313"/><path d="M630.9 120l-14.26 4.64v-9.28z" fill="#e81313"/><path d="M638.92 120l-24.75 8.04v-16.08zm-19.8 1.23l3.78-1.23-3.78-1.23z" stroke="#e81313" stroke-width=".05" fill="#e81313"/><g><use xlink:href="#aE" transform="matrix(1,0,0,1,340.2469135802469,109.33333333333333) translate(0 14.222222222222223)"/><use xlink:href="#av" transform="matrix(1,0,0,1,340.2469135802469,109.33333333333333) translate(84.93827160493828 14.222222222222223)"/><use xlink:href="#aF" transform="matrix(1,0,0,1,340.2469135802469,109.33333333333333) translate(116.44444444444446 14.222222222222223)"/><use xlink:href="#n" transform="matrix(1,0,0,1,340.2469135802469,109.33333333333333) translate(175.55555555555557 14.222222222222223)"/></g><defs><path fill="#3a414a" d="M30-248c87 1 191-15 191 75 0 78-77 80-158 76V0H30v-248zm33 125c57 0 124 11 124-50 0-59-68-47-124-48v98" id="aG"/><path fill="#3a414a" d="M141-36C126-15 110 5 73 4 37 3 15-17 15-53c-1-64 63-63 125-63 3-35-9-54-41-54-24 1-41 7-42 31l-33-3c5-37 33-52 76-52 45 0 72 20 72 64v82c-1 20 7 32 28 27v20c-31 9-61-2-59-35zM48-53c0 20 12 33 32 33 41-3 63-29 60-74-43 2-92-5-92 41" id="aH"/><path fill="#3a414a" d="M59-47c-2 24 18 29 38 22v24C64 9 27 4 27-40v-127H5v-23h24l9-43h21v43h35v23H59v120" id="aI"/><path fill="#3a414a" d="M24-231v-30h32v30H24zM24 0v-190h32V0H24" id="aJ"/><path fill="#3a414a" d="M100-194c63 0 86 42 84 106H49c0 40 14 67 53 68 26 1 43-12 49-29l28 8c-11 28-37 45-77 45C44 4 14-33 15-96c1-61 26-98 85-98zm52 81c6-60-76-77-97-28-3 7-6 17-6 28h103" id="aK"/><path fill="#3a414a" d="M117-194c89-4 53 116 60 194h-32v-121c0-31-8-49-39-48C34-167 62-67 57 0H25l-1-190h30c1 10-1 24 2 32 11-22 29-35 61-36" id="aL"/><g id="a"><use transform="matrix(0.06172839506172839,0,0,0.06172839506172839,0,0)" xlink:href="#aG"/><use transform="matrix(0.06172839506172839,0,0,0.06172839506172839,14.814814814814813,0)" xlink:href="#aH"/><use transform="matrix(0.06172839506172839,0,0,0.06172839506172839,27.160493827160494,0)" xlink:href="#aI"/><use transform="matrix(0.06172839506172839,0,0,0.06172839506172839,33.333333333333336,0)" xlink:href="#aJ"/><use transform="matrix(0.06172839506172839,0,0,0.06172839506172839,38.20987654320988,0)" xlink:href="#aK"/><use transform="matrix(0.06172839506172839,0,0,0.06172839506172839,50.55555555555556,0)" xlink:href="#aL"/><use transform="matrix(0.06172839506172839,0,0,0.06172839506172839,62.901234567901234,0)" xlink:href="#aI"/></g><path fill="#3a414a" d="M179-190L93 31C79 59 56 82 12 73V49c39 6 53-20 64-50L1-190h34L92-34l54-156h33" id="aM"/><path fill="#3a414a" d="M100-194c62-1 85 37 85 99 1 63-27 99-86 99S16-35 15-95c0-66 28-99 85-99zM99-20c44 1 53-31 53-75 0-43-8-75-51-75s-53 32-53 75 10 74 51 75" id="aN"/><path fill="#3a414a" d="M114-163C36-179 61-72 57 0H25l-1-190h30c1 12-1 29 2 39 6-27 23-49 58-41v29" id="aO"/><path fill="#3a414a" d="M135-143c-3-34-86-38-87 0 15 53 115 12 119 90S17 21 10-45l28-5c4 36 97 45 98 0-10-56-113-15-118-90-4-57 82-63 122-42 12 7 21 19 24 35" id="aP"/><g id="b"><use transform="matrix(0.06172839506172839,0,0,0.06172839506172839,0,0)" xlink:href="#aG"/><use transform="matrix(0.06172839506172839,0,0,0.06172839506172839,14.814814814814813,0)" xlink:href="#aH"/><use transform="matrix(0.06172839506172839,0,0,0.06172839506172839,27.160493827160494,0)" xlink:href="#aM"/><use transform="matrix(0.06172839506172839,0,0,0.06172839506172839,38.27160493827161,0)" xlink:href="#aN"/><use transform="matrix(0.06172839506172839,0,0,0.06172839506172839,50.617283950617285,0)" xlink:href="#aO"/><use transform="matrix(0.06172839506172839,0,0,0.06172839506172839,57.96296296296296,0)" xlink:href="#aP"/></g><path fill="#3a414a" d="M87 75C49 33 22-17 22-94c0-76 28-126 65-167h31c-38 41-64 92-64 168S80 34 118 75H87" id="aQ"/><path fill="#3a414a" d="M33 0v-248h34V0H33" id="aR"/><path fill="#3a414a" d="M84 4C-5 8 30-112 23-190h32v120c0 31 7 50 39 49 72-2 45-101 50-169h31l1 190h-30c-1-10 1-25-2-33-11 22-28 36-60 37" id="aS"/><path fill="#3a414a" d="M96-169c-40 0-48 33-48 73s9 75 48 75c24 0 41-14 43-38l32 2c-6 37-31 61-74 61-59 0-76-41-82-99-10-93 101-131 147-64 4 7 5 14 7 22l-32 3c-4-21-16-35-41-35" id="aT"/><g id="c"><use transform="matrix(0.05555555555555554,0,0,0.05555555555555554,0,0)" xlink:href="#aQ"/><use transform="matrix(0.04320987654320987,0,0,0.04320987654320987,6.611111111111108,0)" xlink:href="#aR"/><use transform="matrix(0.049382716049382706,0,0,0.049382716049382706,10.932098765432094,0)" xlink:href="#aL"/><use transform="matrix(0.049382716049382706,0,0,0.049382716049382706,20.808641975308635,0)" xlink:href="#aP"/><use transform="matrix(0.049382716049382706,0,0,0.049382716049382706,29.697530864197525,0)" xlink:href="#aS"/><use transform="matrix(0.049382716049382706,0,0,0.049382716049382706,39.57407407407406,0)" xlink:href="#aO"/><use transform="matrix(0.049382716049382706,0,0,0.049382716049382706,45.450617283950606,0)" xlink:href="#aL"/><use transform="matrix(0.049382716049382706,0,0,0.049382716049382706,55.32716049382715,0)" xlink:href="#aH"/><use transform="matrix(0.049382716049382706,0,0,0.049382716049382706,65.2037037037037,0)" xlink:href="#aT"/><use transform="matrix(0.049382716049382706,0,0,0.049382716049382706,74.09259259259258,0)" xlink:href="#aK"/></g><path fill="#3a414a" d="M212-179c-10-28-35-45-73-45-59 0-87 40-87 99 0 60 29 101 89 101 43 0 62-24 78-52l27 14C228-24 195 4 139 4 59 4 22-46 18-125c-6-104 99-153 187-111 19 9 31 26 39 46" id="aU"/><path fill="#3a414a" d="M210-169c-67 3-38 105-44 169h-31v-121c0-29-5-50-35-48C34-165 62-65 56 0H25l-1-190h30c1 10-1 24 2 32 10-44 99-50 107 0 11-21 27-35 58-36 85-2 47 119 55 194h-31v-121c0-29-5-49-35-48" id="aV"/><path fill="#3a414a" d="M115-194c55 1 70 41 70 98S169 2 115 4C84 4 66-9 55-30l1 105H24l-1-265h31l2 30c10-21 28-34 59-34zm-8 174c40 0 45-34 45-75s-6-73-45-74c-42 0-51 32-51 76 0 43 10 73 51 73" id="aW"/><g id="d"><use transform="matrix(0.049382716049382706,0,0,0.049382716049382706,0,0)" xlink:href="#aU"/><use transform="matrix(0.049382716049382706,0,0,0.049382716049382706,12.790123456790122,0)" xlink:href="#aN"/><use transform="matrix(0.049382716049382706,0,0,0.049382716049382706,22.666666666666664,0)" xlink:href="#aV"/><use transform="matrix(0.049382716049382706,0,0,0.049382716049382706,37.432098765432094,0)" xlink:href="#aW"/><use transform="matrix(0.049382716049382706,0,0,0.049382716049382706,47.30864197530863,0)" xlink:href="#aH"/><use transform="matrix(0.049382716049382706,0,0,0.049382716049382706,57.185185185185176,0)" xlink:href="#aL"/><use transform="matrix(0.049382716049382706,0,0,0.049382716049382706,67.06172839506172,0)" xlink:href="#aJ"/><use transform="matrix(0.049382716049382706,0,0,0.049382716049382706,70.96296296296295,0)" xlink:href="#aK"/><use transform="matrix(0.049382716049382706,0,0,0.049382716049382706,80.83950617283949,0)" xlink:href="#aP"/></g><g id="e"><use transform="matrix(0.049382716049382706,0,0,0.049382716049382706,0,0)" xlink:href="#aN"/><use transform="matrix(0.049382716049382706,0,0,0.049382716049382706,9.87654320987654,0)" xlink:href="#aO"/></g><path fill="#3a414a" d="M143 4C61 4 22-44 18-125c-5-107 100-154 193-111 17 8 29 25 37 43l-32 9c-13-25-37-40-76-40-61 0-88 39-88 99 0 61 29 100 91 101 35 0 62-11 79-27v-45h-74v-28h105v86C228-13 192 4 143 4" id="aX"/><path fill="#3a414a" d="M108 0H70L1-190h34L89-25l56-165h34" id="aY"/><path fill="#3a414a" d="M33-261c38 41 65 92 65 168S71 34 33 75H2C39 34 66-17 66-93S39-220 2-261h31" id="aZ"/><g id="f"><use transform="matrix(0.049382716049382706,0,0,0.049382716049382706,0,0)" xlink:href="#aX"/><use transform="matrix(0.049382716049382706,0,0,0.049382716049382706,13.827160493827158,0)" xlink:href="#aN"/><use transform="matrix(0.049382716049382706,0,0,0.049382716049382706,23.7037037037037,0)" xlink:href="#aY"/><use transform="matrix(0.049382716049382706,0,0,0.049382716049382706,32.59259259259259,0)" xlink:href="#aK"/><use transform="matrix(0.049382716049382706,0,0,0.049382716049382706,42.469135802469125,0)" xlink:href="#aO"/><use transform="matrix(0.049382716049382706,0,0,0.049382716049382706,48.34567901234567,0)" xlink:href="#aL"/><use transform="matrix(0.049382716049382706,0,0,0.049382716049382706,58.222222222222214,0)" xlink:href="#aV"/><use transform="matrix(0.049382716049382706,0,0,0.049382716049382706,72.98765432098764,0)" xlink:href="#aK"/><use transform="matrix(0.049382716049382706,0,0,0.049382716049382706,82.86419753086419,0)" xlink:href="#aL"/><use transform="matrix(0.049382716049382706,0,0,0.049382716049382706,92.74074074074073,0)" xlink:href="#aI"/><use transform="matrix(0.049382716049382706,0,0,0.049382716049382706,97.679012345679,0)" xlink:href="#aZ"/></g><path fill="#3a414a" d="M30 0v-248h187v28H63v79h144v27H63v87h162V0H30" id="ba"/><path fill="#3a414a" d="M24 0v-261h32V0H24" id="bb"/><g id="g"><use transform="matrix(0.06172839506172839,0,0,0.06172839506172839,0,0)" xlink:href="#ba"/><use transform="matrix(0.06172839506172839,0,0,0.06172839506172839,14.814814814814813,0)" xlink:href="#aV"/><use transform="matrix(0.06172839506172839,0,0,0.06172839506172839,33.2716049382716,0)" xlink:href="#aW"/><use transform="matrix(0.06172839506172839,0,0,0.06172839506172839,45.61728395061728,0)" xlink:href="#bb"/><use transform="matrix(0.06172839506172839,0,0,0.06172839506172839,50.49382716049382,0)" xlink:href="#aN"/><use transform="matrix(0.06172839506172839,0,0,0.06172839506172839,62.8395061728395,0)" xlink:href="#aM"/><use transform="matrix(0.06172839506172839,0,0,0.06172839506172839,73.9506172839506,0)" xlink:href="#aK"/><use transform="matrix(0.06172839506172839,0,0,0.06172839506172839,86.29629629629629,0)" xlink:href="#aO"/></g><path fill="#3a414a" d="M85-194c31 0 48 13 60 33l-1-100h32l1 261h-30c-2-10 0-23-3-31C134-8 116 4 85 4 32 4 16-35 15-94c0-66 23-100 70-100zm9 24c-40 0-46 34-46 75 0 40 6 74 45 74 42 0 51-32 51-76 0-42-9-74-50-73" id="bc"/><g id="h"><use transform="matrix(0.06172839506172839,0,0,0.06172839506172839,0,0)" xlink:href="#aG"/><use transform="matrix(0.06172839506172839,0,0,0.06172839506172839,14.814814814814813,0)" xlink:href="#aO"/><use transform="matrix(0.06172839506172839,0,0,0.06172839506172839,22.160493827160494,0)" xlink:href="#aN"/><use transform="matrix(0.06172839506172839,0,0,0.06172839506172839,34.50617283950617,0)" xlink:href="#aY"/><use transform="matrix(0.06172839506172839,0,0,0.06172839506172839,45.61728395061728,0)" xlink:href="#aJ"/><use transform="matrix(0.06172839506172839,0,0,0.06172839506172839,50.49382716049382,0)" xlink:href="#bc"/><use transform="matrix(0.06172839506172839,0,0,0.06172839506172839,62.8395061728395,0)" xlink:href="#aK"/><use transform="matrix(0.06172839506172839,0,0,0.06172839506172839,75.18518518518518,0)" xlink:href="#aO"/><use transform="matrix(0.06172839506172839,0,0,0.06172839506172839,82.53086419753086,0)" xlink:href="#aP"/></g><path fill="#3a414a" d="M106-169C34-169 62-67 57 0H25v-261h32l-1 103c12-21 28-36 61-36 89 0 53 116 60 194h-32v-121c2-32-8-49-39-48" id="bd"/><path fill="#3a414a" d="M0 4l72-265h28L28 4H0" id="be"/><path fill="#3a414a" d="M30 0v-248h33v221h125V0H30" id="bf"/><path fill="#3a414a" d="M101-234c-31-9-42 10-38 44h38v23H63V0H32v-167H5v-23h27c-7-52 17-82 69-68v24" id="bg"/><g id="i"><use transform="matrix(0.06172839506172839,0,0,0.06172839506172839,0,0)" xlink:href="#aG"/><use transform="matrix(0.06172839506172839,0,0,0.06172839506172839,14.814814814814813,0)" xlink:href="#bd"/><use transform="matrix(0.06172839506172839,0,0,0.06172839506172839,27.160493827160494,0)" xlink:href="#aH"/><use transform="matrix(0.06172839506172839,0,0,0.06172839506172839,39.50617283950617,0)" xlink:href="#aO"/><use transform="matrix(0.06172839506172839,0,0,0.06172839506172839,46.85185185185185,0)" xlink:href="#aV"/><use transform="matrix(0.06172839506172839,0,0,0.06172839506172839,65.30864197530863,0)" xlink:href="#aH"/><use transform="matrix(0.06172839506172839,0,0,0.06172839506172839,77.65432098765432,0)" xlink:href="#be"/><use transform="matrix(0.06172839506172839,0,0,0.06172839506172839,83.82716049382715,0)" xlink:href="#bf"/><use transform="matrix(0.06172839506172839,0,0,0.06172839506172839,96.17283950617283,0)" xlink:href="#aJ"/><use transform="matrix(0.06172839506172839,0,0,0.06172839506172839,101.04938271604938,0)" xlink:href="#bg"/><use transform="matrix(0.06172839506172839,0,0,0.06172839506172839,107.22222222222221,0)" xlink:href="#aK"/></g><path fill="#3a414a" d="M185-189c-5-48-123-54-124 2 14 75 158 14 163 119 3 78-121 87-175 55-17-10-28-26-33-46l33-7c5 56 141 63 141-1 0-78-155-14-162-118-5-82 145-84 179-34 5 7 8 16 11 25" id="bh"/><g id="j"><use transform="matrix(0.06172839506172839,0,0,0.06172839506172839,0,0)" xlink:href="#bh"/><use transform="matrix(0.06172839506172839,0,0,0.06172839506172839,14.814814814814813,0)" xlink:href="#aT"/><use transform="matrix(0.06172839506172839,0,0,0.06172839506172839,25.925925925925924,0)" xlink:href="#aJ"/><use transform="matrix(0.06172839506172839,0,0,0.06172839506172839,30.80246913580247,0)" xlink:href="#aK"/><use transform="matrix(0.06172839506172839,0,0,0.06172839506172839,43.148148148148145,0)" xlink:href="#aL"/><use transform="matrix(0.06172839506172839,0,0,0.06172839506172839,55.49382716049382,0)" xlink:href="#aT"/><use transform="matrix(0.06172839506172839,0,0,0.06172839506172839,66.60493827160494,0)" xlink:href="#aK"/></g><g id="k"><use transform="matrix(0.06172839506172839,0,0,0.06172839506172839,0,0)" xlink:href="#aU"/><use transform="matrix(0.06172839506172839,0,0,0.06172839506172839,15.987654320987653,0)" xlink:href="#aN"/><use transform="matrix(0.06172839506172839,0,0,0.06172839506172839,28.333333333333332,0)" xlink:href="#aV"/><use transform="matrix(0.06172839506172839,0,0,0.06172839506172839,46.79012345679012,0)" xlink:href="#aW"/><use transform="matrix(0.06172839506172839,0,0,0.06172839506172839,59.1358024691358,0)" xlink:href="#aH"/><use transform="matrix(0.06172839506172839,0,0,0.06172839506172839,71.48148148148148,0)" xlink:href="#aL"/><use transform="matrix(0.06172839506172839,0,0,0.06172839506172839,83.82716049382717,0)" xlink:href="#aJ"/><use transform="matrix(0.06172839506172839,0,0,0.06172839506172839,88.70370370370371,0)" xlink:href="#aK"/><use transform="matrix(0.06172839506172839,0,0,0.06172839506172839,101.0493827160494,0)" xlink:href="#aP"/></g><path fill="#333" d="M24-248c93 1 206-16 204 79-1 75-69 88-152 82V0H24v-248zm52 121c47 0 100 7 100-41 0-47-54-39-100-39v80" id="bi"/><path fill="#333" d="M135-150c-39-12-60 13-60 57V0H25l-1-190h47c2 13-1 29 3 40 6-28 27-53 61-41v41" id="bj"/><path fill="#333" d="M110-194c64 0 96 36 96 99 0 64-35 99-97 99-61 0-95-36-95-99 0-62 34-99 96-99zm-1 164c35 0 45-28 45-65 0-40-10-65-43-65-34 0-45 26-45 65 0 36 10 65 43 65" id="bk"/><path fill="#333" d="M128 0H69L1-190h53L99-40l48-150h52" id="bl"/><path fill="#333" d="M25-224v-37h50v37H25zM25 0v-190h50V0H25" id="bm"/><path fill="#333" d="M88-194c31-1 46 15 58 34l-1-101h50l1 261h-48c-2-10 0-23-3-31C134-8 116 4 84 4 32 4 16-41 15-95c0-56 19-97 73-99zm17 164c33 0 40-30 41-66 1-37-9-64-41-64s-38 30-39 65c0 43 13 65 39 65" id="bn"/><path fill="#333" d="M185-48c-13 30-37 53-82 52C43 2 14-33 14-96s30-98 90-98c62 0 83 45 84 108H66c0 31 8 55 39 56 18 0 30-7 34-22zm-45-69c5-46-57-63-70-21-2 6-4 13-4 21h74" id="bo"/><path fill="#333" d="M137-138c1-29-70-34-71-4 15 46 118 7 119 86 1 83-164 76-172 9l43-7c4 19 20 25 44 25 33 8 57-30 24-41C81-84 22-81 20-136c-2-80 154-74 161-7" id="bp"/><g id="l"><use transform="matrix(0.04938271604938272,0,0,0.04938271604938272,0,0)" xlink:href="#bi"/><use transform="matrix(0.04938271604938272,0,0,0.04938271604938272,11.851851851851853,0)" xlink:href="#bj"/><use transform="matrix(0.04938271604938272,0,0,0.04938271604938272,18.765432098765434,0)" xlink:href="#bk"/><use transform="matrix(0.04938271604938272,0,0,0.04938271604938272,29.58024691358025,0)" xlink:href="#bl"/><use transform="matrix(0.04938271604938272,0,0,0.04938271604938272,39.45679012345679,0)" xlink:href="#bm"/><use transform="matrix(0.04938271604938272,0,0,0.04938271604938272,44.39506172839506,0)" xlink:href="#bn"/><use transform="matrix(0.04938271604938272,0,0,0.04938271604938272,55.20987654320988,0)" xlink:href="#bo"/><use transform="matrix(0.04938271604938272,0,0,0.04938271604938272,65.08641975308643,0)" xlink:href="#bp"/></g><path fill="#333" d="M186 0v-106H76V0H24v-248h52v99h110v-99h50V0h-50" id="bq"/><path fill="#333" d="M133-34C117-15 103 5 69 4 32 3 11-16 11-54c-1-60 55-63 116-61 1-26-3-47-28-47-18 1-26 9-28 27l-52-2c7-38 36-58 82-57s74 22 75 68l1 82c-1 14 12 18 25 15v27c-30 8-71 5-69-32zm-48 3c29 0 43-24 42-57-32 0-66-3-65 30 0 17 8 27 23 27" id="br"/><path fill="#333" d="M25 0v-261h50V0H25" id="bs"/><path fill="#333" d="M115-3C79 11 28 4 28-45v-112H4v-33h27l15-45h31v45h36v33H77v99c-1 23 16 31 38 25v30" id="bt"/><path fill="#333" d="M114-157C55-157 80-60 75 0H25v-261h50l-1 109c12-26 28-41 61-42 86-1 58 113 63 194h-50c-7-57 23-157-34-157" id="bu"/><path fill="#333" d="M190-63c-7 42-38 67-86 67-59 0-84-38-90-98-12-110 154-137 174-36l-49 2c-2-19-15-32-35-32-30 0-35 28-38 64-6 74 65 87 74 30" id="bv"/><g id="m"><use transform="matrix(0.04938271604938272,0,0,0.04938271604938272,0,0)" xlink:href="#bq"/><use transform="matrix(0.04938271604938272,0,0,0.04938271604938272,12.790123456790125,0)" xlink:href="#bo"/><use transform="matrix(0.04938271604938272,0,0,0.04938271604938272,22.66666666666667,0)" xlink:href="#br"/><use transform="matrix(0.04938271604938272,0,0,0.04938271604938272,32.543209876543216,0)" xlink:href="#bs"/><use transform="matrix(0.04938271604938272,0,0,0.04938271604938272,37.48148148148149,0)" xlink:href="#bt"/><use transform="matrix(0.04938271604938272,0,0,0.04938271604938272,43.35802469135803,0)" xlink:href="#bu"/><use transform="matrix(0.04938271604938272,0,0,0.04938271604938272,54.17283950617284,0)" xlink:href="#bv"/><use transform="matrix(0.04938271604938272,0,0,0.04938271604938272,64.0493827160494,0)" xlink:href="#br"/><use transform="matrix(0.04938271604938272,0,0,0.04938271604938272,73.92592592592594,0)" xlink:href="#bj"/><use transform="matrix(0.04938271604938272,0,0,0.04938271604938272,80.83950617283952,0)" xlink:href="#bo"/></g><path fill="#333" d="M135-194c52 0 70 43 70 98 0 56-19 99-73 100-30 1-46-15-58-35L72 0H24l1-261h50v104c11-23 29-37 60-37zM114-30c31 0 40-27 40-66 0-37-7-63-39-63s-41 28-41 65c0 36 8 64 40 64" id="bw"/><path fill="#333" d="M135-194c87-1 58 113 63 194h-50c-7-57 23-157-34-157-59 0-34 97-39 157H25l-1-190h47c2 12-1 28 3 38 12-26 28-41 61-42" id="bx"/><path fill="#333" d="M121-226c-27-7-43 5-38 36h38v33H83V0H34v-157H6v-33h28c-9-59 32-81 87-68v32" id="by"/><g id="n"><use transform="matrix(0.04938271604938272,0,0,0.04938271604938272,0,0)" xlink:href="#bw"/><use transform="matrix(0.04938271604938272,0,0,0.04938271604938272,10.814814814814815,0)" xlink:href="#bo"/><use transform="matrix(0.04938271604938272,0,0,0.04938271604938272,20.69135802469136,0)" xlink:href="#bx"/><use transform="matrix(0.04938271604938272,0,0,0.04938271604938272,31.506172839506174,0)" xlink:href="#bo"/><use transform="matrix(0.04938271604938272,0,0,0.04938271604938272,41.38271604938272,0)" xlink:href="#by"/><use transform="matrix(0.04938271604938272,0,0,0.04938271604938272,47.25925925925927,0)" xlink:href="#bm"/><use transform="matrix(0.04938271604938272,0,0,0.04938271604938272,52.19753086419754,0)" xlink:href="#bt"/><use transform="matrix(0.04938271604938272,0,0,0.04938271604938272,58.074074074074076,0)" xlink:href="#bp"/></g><path d="M24 0v-248h52v208h133V0H24" id="bz"/><path d="M185-48c-13 30-37 53-82 52C43 2 14-33 14-96s30-98 90-98c62 0 83 45 84 108H66c0 31 8 55 39 56 18 0 30-7 34-22zm-45-69c5-46-57-63-70-21-2 6-4 13-4 21h74" id="bA"/><path d="M195-6C206 82 75 100 31 46c-4-6-6-13-8-21l49-6c3 16 16 24 34 25 40 0 42-37 40-79-11 22-30 35-61 35-53 0-70-43-70-97 0-56 18-96 73-97 30 0 46 14 59 34l2-30h47zm-90-29c32 0 41-27 41-63 0-35-9-62-40-62-32 0-39 29-40 63 0 36 9 62 39 62" id="bB"/><path d="M135-194c87-1 58 113 63 194h-50c-7-57 23-157-34-157-59 0-34 97-39 157H25l-1-190h47c2 12-1 28 3 38 12-26 28-41 61-42" id="bC"/><path d="M88-194c31-1 46 15 58 34l-1-101h50l1 261h-48c-2-10 0-23-3-31C134-8 116 4 84 4 32 4 16-41 15-95c0-56 19-97 73-99zm17 164c33 0 40-30 41-66 1-37-9-64-41-64s-38 30-39 65c0 43 13 65 39 65" id="bD"/><g id="o"><use transform="matrix(0.04504485809347915,0,0,0.04504485809347915,0,0)" xlink:href="#bz"/><use transform="matrix(0.04504485809347915,0,0,0.04504485809347915,9.864823922471933,0)" xlink:href="#bA"/><use transform="matrix(0.04504485809347915,0,0,0.04504485809347915,18.873795541167766,0)" xlink:href="#bB"/><use transform="matrix(0.04504485809347915,0,0,0.04504485809347915,28.7386194636397,0)" xlink:href="#bA"/><use transform="matrix(0.04504485809347915,0,0,0.04504485809347915,37.74759108233553,0)" xlink:href="#bC"/><use transform="matrix(0.04504485809347915,0,0,0.04504485809347915,47.61241500480747,0)" xlink:href="#bD"/></g><path d="M127-220V0H93v-220H8v-28h204v28h-85" id="bE"/><path d="M100-194c63 0 86 42 84 106H49c0 40 14 67 53 68 26 1 43-12 49-29l28 8c-11 28-37 45-77 45C44 4 14-33 15-96c1-61 26-98 85-98zm52 81c6-60-76-77-97-28-3 7-6 17-6 28h103" id="bF"/><path d="M117-194c89-4 53 116 60 194h-32v-121c0-31-8-49-39-48C34-167 62-67 57 0H25l-1-190h30c1 10-1 24 2 32 11-22 29-35 61-36" id="bG"/><path d="M135-143c-3-34-86-38-87 0 15 53 115 12 119 90S17 21 10-45l28-5c4 36 97 45 98 0-10-56-113-15-118-90-4-57 82-63 122-42 12 7 21 19 24 35" id="bH"/><path d="M24-231v-30h32v30H24zM24 0v-190h32V0H24" id="bI"/><path d="M100-194c62-1 85 37 85 99 1 63-27 99-86 99S16-35 15-95c0-66 28-99 85-99zM99-20c44 1 53-31 53-75 0-43-8-75-51-75s-53 32-53 75 10 74 51 75" id="bJ"/><g id="p"><use transform="matrix(0.045044858093479155,0,0,0.045044858093479155,0,0)" xlink:href="#bE"/><use transform="matrix(0.045044858093479155,0,0,0.045044858093479155,8.06302959873277,0)" xlink:href="#bF"/><use transform="matrix(0.045044858093479155,0,0,0.045044858093479155,17.0720012174286,0)" xlink:href="#bG"/><use transform="matrix(0.045044858093479155,0,0,0.045044858093479155,26.080972836124435,0)" xlink:href="#bH"/><use transform="matrix(0.045044858093479155,0,0,0.045044858093479155,34.18904729295068,0)" xlink:href="#bI"/><use transform="matrix(0.045044858093479155,0,0,0.045044858093479155,37.74759108233553,0)" xlink:href="#bJ"/><use transform="matrix(0.045044858093479155,0,0,0.045044858093479155,46.75656270103136,0)" xlink:href="#bG"/></g><path d="M33 0v-248h34V0H33" id="bK"/><path d="M96-169c-40 0-48 33-48 73s9 75 48 75c24 0 41-14 43-38l32 2c-6 37-31 61-74 61-59 0-76-41-82-99-10-93 101-131 147-64 4 7 5 14 7 22l-32 3c-4-21-16-35-41-35" id="bL"/><path d="M59-47c-2 24 18 29 38 22v24C64 9 27 4 27-40v-127H5v-23h24l9-43h21v43h35v23H59v120" id="bM"/><path d="M108 0H70L1-190h34L89-25l56-165h34" id="bN"/><g id="q"><use transform="matrix(0.045044858093479155,0,0,0.045044858093479155,0,0)" xlink:href="#bK"/><use transform="matrix(0.045044858093479155,0,0,0.045044858093479155,4.504485809347916,0)" xlink:href="#bG"/><use transform="matrix(0.045044858093479155,0,0,0.045044858093479155,13.513457428043743,0)" xlink:href="#bL"/><use transform="matrix(0.045044858093479155,0,0,0.045044858093479155,21.62153188486999,0)" xlink:href="#bF"/><use transform="matrix(0.045044858093479155,0,0,0.045044858093479155,30.63050350356582,0)" xlink:href="#bG"/><use transform="matrix(0.045044858093479155,0,0,0.045044858093479155,39.63947512226166,0)" xlink:href="#bM"/><use transform="matrix(0.045044858093479155,0,0,0.045044858093479155,44.14396093160957,0)" xlink:href="#bI"/><use transform="matrix(0.045044858093479155,0,0,0.045044858093479155,47.70250472099441,0)" xlink:href="#bN"/><use transform="matrix(0.045044858093479155,0,0,0.045044858093479155,55.81057917782067,0)" xlink:href="#bF"/><use transform="matrix(0.045044858093479155,0,0,0.045044858093479155,64.8195507965165,0)" xlink:href="#bH"/></g><g id="r"><use transform="matrix(0.04938271604938272,0,0,0.04938271604938272,0,0)" xlink:href="#bq"/><use transform="matrix(0.04938271604938272,0,0,0.04938271604938272,12.790123456790125,0)" xlink:href="#br"/><use transform="matrix(0.04938271604938272,0,0,0.04938271604938272,22.66666666666667,0)" xlink:href="#bl"/><use transform="matrix(0.04938271604938272,0,0,0.04938271604938272,32.543209876543216,0)" xlink:href="#bo"/></g><g id="s"><use transform="matrix(0.04938271604938272,0,0,0.04938271604938272,0,0)" xlink:href="#bt"/><use transform="matrix(0.04938271604938272,0,0,0.04938271604938272,5.8765432098765435,0)" xlink:href="#bk"/></g><path fill="#333" d="M195-6C206 82 75 100 31 46c-4-6-6-13-8-21l49-6c3 16 16 24 34 25 40 0 42-37 40-79-11 22-30 35-61 35-53 0-70-43-70-97 0-56 18-96 73-97 30 0 46 14 59 34l2-30h47zm-90-29c32 0 41-27 41-63 0-35-9-62-40-62-32 0-39 29-40 63 0 36 9 62 39 62" id="bO"/><g id="t"><use transform="matrix(0.04938271604938272,0,0,0.04938271604938272,0,0)" xlink:href="#bx"/><use transform="matrix(0.04938271604938272,0,0,0.04938271604938272,10.814814814814815,0)" xlink:href="#bo"/><use transform="matrix(0.04938271604938272,0,0,0.04938271604938272,20.69135802469136,0)" xlink:href="#bO"/><use transform="matrix(0.04938271604938272,0,0,0.04938271604938272,31.506172839506174,0)" xlink:href="#bk"/><use transform="matrix(0.04938271604938272,0,0,0.04938271604938272,42.320987654320994,0)" xlink:href="#bv"/><use transform="matrix(0.04938271604938272,0,0,0.04938271604938272,52.19753086419754,0)" xlink:href="#bm"/><use transform="matrix(0.04938271604938272,0,0,0.04938271604938272,57.135802469135804,0)" xlink:href="#br"/><use transform="matrix(0.04938271604938272,0,0,0.04938271604938272,67.01234567901236,0)" xlink:href="#bt"/><use transform="matrix(0.04938271604938272,0,0,0.04938271604938272,72.8888888888889,0)" xlink:href="#bo"/></g><g id="u"><use transform="matrix(0.04938271604938272,0,0,0.04938271604938272,0,0)" xlink:href="#bt"/><use transform="matrix(0.04938271604938272,0,0,0.04938271604938272,5.8765432098765435,0)" xlink:href="#bk"/></g><g id="v"><use transform="matrix(0.04938271604938272,0,0,0.04938271604938272,0,0)" xlink:href="#br"/><use transform="matrix(0.04938271604938272,0,0,0.04938271604938272,9.876543209876544,0)" xlink:href="#bn"/><use transform="matrix(0.04938271604938272,0,0,0.04938271604938272,20.69135802469136,0)" xlink:href="#bn"/></g><path fill="#333" d="M231 0h-52l-39-155L100 0H48L-1-190h46L77-45c9-52 24-97 36-145h53l37 145 32-145h46" id="bP"/><g id="w"><use transform="matrix(0.04938271604938272,0,0,0.04938271604938272,0,0)" xlink:href="#bx"/><use transform="matrix(0.04938271604938272,0,0,0.04938271604938272,10.814814814814815,0)" xlink:href="#bo"/><use transform="matrix(0.04938271604938272,0,0,0.04938271604938272,20.69135802469136,0)" xlink:href="#bP"/></g><path fill="#333" d="M85 4C-2 5 27-109 22-190h50c7 57-23 150 33 157 60-5 35-97 40-157h50l1 190h-47c-2-12 1-28-3-38-12 25-28 42-61 42" id="bQ"/><g id="x"><use transform="matrix(0.04938271604938272,0,0,0.04938271604938272,0,0)" xlink:href="#bn"/><use transform="matrix(0.04938271604938272,0,0,0.04938271604938272,10.814814814814815,0)" xlink:href="#bj"/><use transform="matrix(0.04938271604938272,0,0,0.04938271604938272,17.728395061728396,0)" xlink:href="#bQ"/><use transform="matrix(0.04938271604938272,0,0,0.04938271604938272,28.543209876543205,0)" xlink:href="#bO"/></g><g id="y"><use transform="matrix(0.04938271604938272,0,0,0.04938271604938272,0,0)" xlink:href="#bm"/><use transform="matrix(0.04938271604938272,0,0,0.04938271604938272,4.938271604938272,0)" xlink:href="#bx"/></g><g id="z"><use transform="matrix(0.04938271604938272,0,0,0.04938271604938272,0,0)" xlink:href="#bm"/><use transform="matrix(0.04938271604938272,0,0,0.04938271604938272,4.938271604938272,0)" xlink:href="#bx"/><use transform="matrix(0.04938271604938272,0,0,0.04938271604938272,15.753086419753087,0)" xlink:href="#bp"/><use transform="matrix(0.04938271604938272,0,0,0.04938271604938272,25.629629629629633,0)" xlink:href="#bQ"/><use transform="matrix(0.04938271604938272,0,0,0.04938271604938272,36.44444444444445,0)" xlink:href="#bj"/><use transform="matrix(0.04938271604938272,0,0,0.04938271604938272,43.35802469135803,0)" xlink:href="#bo"/><use transform="matrix(0.04938271604938272,0,0,0.04938271604938272,53.23456790123457,0)" xlink:href="#bn"/></g><g id="A"><use transform="matrix(0.04938271604938272,0,0,0.04938271604938272,0,0)" xlink:href="#bs"/><use transform="matrix(0.04938271604938272,0,0,0.04938271604938272,4.938271604938272,0)" xlink:href="#bm"/><use transform="matrix(0.04938271604938272,0,0,0.04938271604938272,9.876543209876544,0)" xlink:href="#bp"/><use transform="matrix(0.04938271604938272,0,0,0.04938271604938272,19.75308641975309,0)" xlink:href="#bt"/></g><path fill="#333" d="M135-194c53 0 70 44 70 98 0 56-19 98-73 100-31 1-45-17-59-34 3 33 2 69 2 105H25l-1-265h48c2 10 0 23 3 31 11-24 29-35 60-35zM114-30c33 0 39-31 40-66 0-38-9-64-40-64-56 0-55 130 0 130" id="bR"/><path fill="#333" d="M123 10C108 53 80 86 19 72V37c35 8 53-11 59-39L3-190h52l48 148c12-52 28-100 44-148h51" id="bS"/><g id="B"><use transform="matrix(0.04938271604938272,0,0,0.04938271604938272,0,0)" xlink:href="#bR"/><use transform="matrix(0.04938271604938272,0,0,0.04938271604938272,10.814814814814815,0)" xlink:href="#br"/><use transform="matrix(0.04938271604938272,0,0,0.04938271604938272,20.69135802469136,0)" xlink:href="#bS"/><use transform="matrix(0.04938271604938272,0,0,0.04938271604938272,30.567901234567906,0)" xlink:href="#bo"/><use transform="matrix(0.04938271604938272,0,0,0.04938271604938272,40.44444444444445,0)" xlink:href="#bp"/></g><g id="C"><use transform="matrix(0.04938271604938272,0,0,0.04938271604938272,0,0)" xlink:href="#bk"/><use transform="matrix(0.04938271604938272,0,0,0.04938271604938272,10.814814814814815,0)" xlink:href="#bx"/></g><g id="D"><use transform="matrix(0.04938271604938272,0,0,0.04938271604938272,0,0)" xlink:href="#bt"/><use transform="matrix(0.04938271604938272,0,0,0.04938271604938272,5.8765432098765435,0)" xlink:href="#bu"/><use transform="matrix(0.04938271604938272,0,0,0.04938271604938272,16.691358024691358,0)" xlink:href="#bo"/></g><path fill="#333" d="M182-130c37 4 62 22 62 59C244 23 116-4 24 0v-248c84 5 203-23 205 63 0 31-19 50-47 55zM76-148c40-3 101 13 101-30 0-44-60-28-101-31v61zm0 110c48-3 116 14 116-37 0-48-69-32-116-35v72" id="bT"/><g id="E"><use transform="matrix(0.04938271604938272,0,0,0.04938271604938272,0,0)" xlink:href="#bT"/><use transform="matrix(0.04938271604938272,0,0,0.04938271604938272,12.790123456790125,0)" xlink:href="#bo"/><use transform="matrix(0.04938271604938272,0,0,0.04938271604938272,22.66666666666667,0)" xlink:href="#bu"/><use transform="matrix(0.04938271604938272,0,0,0.04938271604938272,33.48148148148149,0)" xlink:href="#br"/><use transform="matrix(0.04938271604938272,0,0,0.04938271604938272,43.35802469135803,0)" xlink:href="#bs"/><use transform="matrix(0.04938271604938272,0,0,0.04938271604938272,48.296296296296305,0)" xlink:href="#by"/></g><g id="F"><use transform="matrix(0.04938271604938272,0,0,0.04938271604938272,0,0)" xlink:href="#bk"/><use transform="matrix(0.04938271604938272,0,0,0.04938271604938272,10.814814814814815,0)" xlink:href="#by"/></g><path fill="#1f1f1f" d="M115-194c55 1 70 41 70 98S169 2 115 4C84 4 66-9 55-30l1 105H24l-1-265h31l2 30c10-21 28-34 59-34zm-8 174c40 0 45-34 45-75s-6-73-45-74c-42 0-51 32-51 76 0 43 10 73 51 73" id="bU"/><path fill="#1f1f1f" d="M114-163C36-179 61-72 57 0H25l-1-190h30c1 12-1 29 2 39 6-27 23-49 58-41v29" id="bV"/><path fill="#1f1f1f" d="M100-194c63 0 86 42 84 106H49c0 40 14 67 53 68 26 1 43-12 49-29l28 8c-11 28-37 45-77 45C44 4 14-33 15-96c1-61 26-98 85-98zm52 81c6-60-76-77-97-28-3 7-6 17-6 28h103" id="bW"/><path fill="#1f1f1f" d="M210-169c-67 3-38 105-44 169h-31v-121c0-29-5-50-35-48C34-165 62-65 56 0H25l-1-190h30c1 10-1 24 2 32 10-44 99-50 107 0 11-21 27-35 58-36 85-2 47 119 55 194h-31v-121c0-29-5-49-35-48" id="bX"/><path fill="#1f1f1f" d="M24-231v-30h32v30H24zM24 0v-190h32V0H24" id="bY"/><path fill="#1f1f1f" d="M84 4C-5 8 30-112 23-190h32v120c0 31 7 50 39 49 72-2 45-101 50-169h31l1 190h-30c-1-10 1-25-2-33-11 22-28 36-60 37" id="bZ"/><g id="G"><use transform="matrix(0.05432098765432096,0,0,0.05432098765432096,0,0)" xlink:href="#bU"/><use transform="matrix(0.05432098765432096,0,0,0.05432098765432096,10.864197530864192,0)" xlink:href="#bV"/><use transform="matrix(0.05432098765432096,0,0,0.05432098765432096,17.328395061728386,0)" xlink:href="#bW"/><use transform="matrix(0.05432098765432096,0,0,0.05432098765432096,28.19259259259258,0)" xlink:href="#bX"/><use transform="matrix(0.05432098765432096,0,0,0.05432098765432096,44.434567901234544,0)" xlink:href="#bY"/><use transform="matrix(0.05432098765432096,0,0,0.05432098765432096,48.7259259259259,0)" xlink:href="#bZ"/><use transform="matrix(0.05432098765432096,0,0,0.05432098765432096,59.590123456790096,0)" xlink:href="#bX"/></g><path fill="#1f1f1f" d="M106-169C34-169 62-67 57 0H25v-261h32l-1 103c12-21 28-36 61-36 89 0 53 116 60 194h-32v-121c2-32-8-49-39-48" id="ca"/><path fill="#1f1f1f" d="M100-194c62-1 85 37 85 99 1 63-27 99-86 99S16-35 15-95c0-66 28-99 85-99zM99-20c44 1 53-31 53-75 0-43-8-75-51-75s-53 32-53 75 10 74 51 75" id="cb"/><path fill="#1f1f1f" d="M24 0v-261h32V0H24" id="cc"/><path fill="#1f1f1f" d="M85-194c31 0 48 13 60 33l-1-100h32l1 261h-30c-2-10 0-23-3-31C134-8 116 4 85 4 32 4 16-35 15-94c0-66 23-100 70-100zm9 24c-40 0-46 34-46 75 0 40 6 74 45 74 42 0 51-32 51-76 0-42-9-74-50-73" id="cd"/><g id="H"><use transform="matrix(0.05432098765432096,0,0,0.05432098765432096,0,0)" xlink:href="#ca"/><use transform="matrix(0.05432098765432096,0,0,0.05432098765432096,10.864197530864192,0)" xlink:href="#cb"/><use transform="matrix(0.05432098765432096,0,0,0.05432098765432096,21.728395061728385,0)" xlink:href="#cc"/><use transform="matrix(0.05432098765432096,0,0,0.05432098765432096,26.01975308641974,0)" xlink:href="#cd"/><use transform="matrix(0.05432098765432096,0,0,0.05432098765432096,36.88395061728393,0)" xlink:href="#bW"/><use transform="matrix(0.05432098765432096,0,0,0.05432098765432096,47.74814814814812,0)" xlink:href="#bV"/></g><path fill="#3a414a" d="M135-194c53 0 70 44 70 98 0 56-19 98-73 100-31 1-45-17-59-34 3 33 2 69 2 105H25l-1-265h48c2 10 0 23 3 31 11-24 29-35 60-35zM114-30c33 0 39-31 40-66 0-38-9-64-40-64-56 0-55 130 0 130" id="ce"/><path fill="#3a414a" d="M133-34C117-15 103 5 69 4 32 3 11-16 11-54c-1-60 55-63 116-61 1-26-3-47-28-47-18 1-26 9-28 27l-52-2c7-38 36-58 82-57s74 22 75 68l1 82c-1 14 12 18 25 15v27c-30 8-71 5-69-32zm-48 3c29 0 43-24 42-57-32 0-66-3-65 30 0 17 8 27 23 27" id="cf"/><path fill="#3a414a" d="M123 10C108 53 80 86 19 72V37c35 8 53-11 59-39L3-190h52l48 148c12-52 28-100 44-148h51" id="cg"/><path fill="#3a414a" d="M185-48c-13 30-37 53-82 52C43 2 14-33 14-96s30-98 90-98c62 0 83 45 84 108H66c0 31 8 55 39 56 18 0 30-7 34-22zm-45-69c5-46-57-63-70-21-2 6-4 13-4 21h74" id="ch"/><path fill="#3a414a" d="M137-138c1-29-70-34-71-4 15 46 118 7 119 86 1 83-164 76-172 9l43-7c4 19 20 25 44 25 33 8 57-30 24-41C81-84 22-81 20-136c-2-80 154-74 161-7" id="ci"/><g id="I"><use transform="matrix(0.04938271604938272,0,0,0.04938271604938272,0,0)" xlink:href="#ce"/><use transform="matrix(0.04938271604938272,0,0,0.04938271604938272,10.814814814814815,0)" xlink:href="#cf"/><use transform="matrix(0.04938271604938272,0,0,0.04938271604938272,20.69135802469136,0)" xlink:href="#cg"/><use transform="matrix(0.04938271604938272,0,0,0.04938271604938272,30.567901234567906,0)" xlink:href="#ch"/><use transform="matrix(0.04938271604938272,0,0,0.04938271604938272,40.44444444444445,0)" xlink:href="#ci"/></g><path fill="#3a414a" d="M110-194c64 0 96 36 96 99 0 64-35 99-97 99-61 0-95-36-95-99 0-62 34-99 96-99zm-1 164c35 0 45-28 45-65 0-40-10-65-43-65-34 0-45 26-45 65 0 36 10 65 43 65" id="cj"/><path fill="#3a414a" d="M135-194c87-1 58 113 63 194h-50c-7-57 23-157-34-157-59 0-34 97-39 157H25l-1-190h47c2 12-1 28 3 38 12-26 28-41 61-42" id="ck"/><g id="J"><use transform="matrix(0.04938271604938272,0,0,0.04938271604938272,0,0)" xlink:href="#cj"/><use transform="matrix(0.04938271604938272,0,0,0.04938271604938272,10.814814814814815,0)" xlink:href="#ck"/></g><path fill="#3a414a" d="M115-3C79 11 28 4 28-45v-112H4v-33h27l15-45h31v45h36v33H77v99c-1 23 16 31 38 25v30" id="cl"/><path fill="#3a414a" d="M114-157C55-157 80-60 75 0H25v-261h50l-1 109c12-26 28-41 61-42 86-1 58 113 63 194h-50c-7-57 23-157-34-157" id="cm"/><g id="K"><use transform="matrix(0.04938271604938272,0,0,0.04938271604938272,0,0)" xlink:href="#cl"/><use transform="matrix(0.04938271604938272,0,0,0.04938271604938272,5.8765432098765435,0)" xlink:href="#cm"/><use transform="matrix(0.04938271604938272,0,0,0.04938271604938272,16.691358024691358,0)" xlink:href="#ch"/></g><path fill="#3a414a" d="M182-130c37 4 62 22 62 59C244 23 116-4 24 0v-248c84 5 203-23 205 63 0 31-19 50-47 55zM76-148c40-3 101 13 101-30 0-44-60-28-101-31v61zm0 110c48-3 116 14 116-37 0-48-69-32-116-35v72" id="cn"/><path fill="#3a414a" d="M25 0v-261h50V0H25" id="co"/><path fill="#3a414a" d="M121-226c-27-7-43 5-38 36h38v33H83V0H34v-157H6v-33h28c-9-59 32-81 87-68v32" id="cp"/><g id="L"><use transform="matrix(0.04938271604938272,0,0,0.04938271604938272,0,0)" xlink:href="#cn"/><use transform="matrix(0.04938271604938272,0,0,0.04938271604938272,12.790123456790125,0)" xlink:href="#ch"/><use transform="matrix(0.04938271604938272,0,0,0.04938271604938272,22.66666666666667,0)" xlink:href="#cm"/><use transform="matrix(0.04938271604938272,0,0,0.04938271604938272,33.48148148148149,0)" xlink:href="#cf"/><use transform="matrix(0.04938271604938272,0,0,0.04938271604938272,43.35802469135803,0)" xlink:href="#co"/><use transform="matrix(0.04938271604938272,0,0,0.04938271604938272,48.296296296296305,0)" xlink:href="#cp"/></g><g id="M"><use transform="matrix(0.04938271604938272,0,0,0.04938271604938272,0,0)" xlink:href="#cj"/><use transform="matrix(0.04938271604938272,0,0,0.04938271604938272,10.814814814814815,0)" xlink:href="#cp"/></g><path fill="#333" d="M24 0v-248h52v208h133V0H24" id="cq"/><path fill="#333" d="M147 0L96-86 75-71V0H25v-261h50v150l67-79h53l-66 74L201 0h-54" id="cr"/><g id="N"><use transform="matrix(0.04938271604938272,0,0,0.04938271604938272,0,0)" xlink:href="#cq"/><use transform="matrix(0.04938271604938272,0,0,0.04938271604938272,10.814814814814815,0)" xlink:href="#bk"/><use transform="matrix(0.04938271604938272,0,0,0.04938271604938272,21.62962962962963,0)" xlink:href="#bk"/><use transform="matrix(0.04938271604938272,0,0,0.04938271604938272,32.44444444444444,0)" xlink:href="#cr"/><use transform="matrix(0.04938271604938272,0,0,0.04938271604938272,42.32098765432099,0)" xlink:href="#bp"/></g><g id="O"><use transform="matrix(0.04938271604938272,0,0,0.04938271604938272,0,0)" xlink:href="#by"/><use transform="matrix(0.04938271604938272,0,0,0.04938271604938272,5.8765432098765435,0)" xlink:href="#bk"/><use transform="matrix(0.04938271604938272,0,0,0.04938271604938272,16.691358024691358,0)" xlink:href="#bj"/></g><g id="P"><use transform="matrix(0.04938271604938272,0,0,0.04938271604938272,0,0)" xlink:href="#bv"/><use transform="matrix(0.04938271604938272,0,0,0.04938271604938272,9.876543209876544,0)" xlink:href="#bu"/><use transform="matrix(0.04938271604938272,0,0,0.04938271604938272,20.69135802469136,0)" xlink:href="#bo"/><use transform="matrix(0.04938271604938272,0,0,0.04938271604938272,30.567901234567906,0)" xlink:href="#br"/><use transform="matrix(0.04938271604938272,0,0,0.04938271604938272,40.44444444444445,0)" xlink:href="#bR"/><use transform="matrix(0.04938271604938272,0,0,0.04938271604938272,51.25925925925927,0)" xlink:href="#bo"/><use transform="matrix(0.04938271604938272,0,0,0.04938271604938272,61.13580246913581,0)" xlink:href="#bj"/></g><path fill="#1f1f1f" d="M59-47c-2 24 18 29 38 22v24C64 9 27 4 27-40v-127H5v-23h24l9-43h21v43h35v23H59v120" id="cs"/><g id="Q"><use transform="matrix(0.05432098765432096,0,0,0.05432098765432096,0,0)" xlink:href="#cs"/><use transform="matrix(0.05432098765432096,0,0,0.05432098765432096,5.432098765432096,0)" xlink:href="#cb"/></g><path fill="#1f1f1f" d="M96-169c-40 0-48 33-48 73s9 75 48 75c24 0 41-14 43-38l32 2c-6 37-31 61-74 61-59 0-76-41-82-99-10-93 101-131 147-64 4 7 5 14 7 22l-32 3c-4-21-16-35-41-35" id="ct"/><g id="R"><use transform="matrix(0.05432098765432096,0,0,0.05432098765432096,0,0)" xlink:href="#bV"/><use transform="matrix(0.05432098765432096,0,0,0.05432098765432096,6.464197530864194,0)" xlink:href="#bW"/><use transform="matrix(0.05432098765432096,0,0,0.05432098765432096,17.328395061728386,0)" xlink:href="#cd"/><use transform="matrix(0.05432098765432096,0,0,0.05432098765432096,28.19259259259258,0)" xlink:href="#bZ"/><use transform="matrix(0.05432098765432096,0,0,0.05432098765432096,39.05679012345677,0)" xlink:href="#bV"/><use transform="matrix(0.05432098765432096,0,0,0.05432098765432096,45.52098765432096,0)" xlink:href="#ct"/><use transform="matrix(0.05432098765432096,0,0,0.05432098765432096,55.29876543209873,0)" xlink:href="#bW"/></g><path fill="#1f1f1f" d="M135-143c-3-34-86-38-87 0 15 53 115 12 119 90S17 21 10-45l28-5c4 36 97 45 98 0-10-56-113-15-118-90-4-57 82-63 122-42 12 7 21 19 24 35" id="cu"/><g id="S"><use transform="matrix(0.05432098765432096,0,0,0.05432098765432096,0,0)" xlink:href="#ct"/><use transform="matrix(0.05432098765432096,0,0,0.05432098765432096,9.777777777777773,0)" xlink:href="#cb"/><use transform="matrix(0.05432098765432096,0,0,0.05432098765432096,20.641975308641968,0)" xlink:href="#cu"/><use transform="matrix(0.05432098765432096,0,0,0.05432098765432096,30.41975308641974,0)" xlink:href="#cs"/></g><path fill="#1f1f1f" d="M117-194c89-4 53 116 60 194h-32v-121c0-31-8-49-39-48C34-167 62-67 57 0H25l-1-190h30c1 10-1 24 2 32 11-22 29-35 61-36" id="cv"/><path fill="#1f1f1f" d="M108 0H70L1-190h34L89-25l56-165h34" id="cw"/><path fill="#1f1f1f" d="M9 0v-24l116-142H16v-24h144v24L44-24h123V0H9" id="cx"/><g id="T"><use transform="matrix(0.054320987654320974,0,0,0.054320987654320974,0,0)" xlink:href="#bY"/><use transform="matrix(0.054320987654320974,0,0,0.054320987654320974,4.291358024691357,0)" xlink:href="#cv"/><use transform="matrix(0.054320987654320974,0,0,0.054320987654320974,15.155555555555551,0)" xlink:href="#ct"/><use transform="matrix(0.054320987654320974,0,0,0.054320987654320974,24.933333333333326,0)" xlink:href="#bW"/><use transform="matrix(0.054320987654320974,0,0,0.054320987654320974,35.79753086419752,0)" xlink:href="#cv"/><use transform="matrix(0.054320987654320974,0,0,0.054320987654320974,46.661728395061715,0)" xlink:href="#cs"/><use transform="matrix(0.054320987654320974,0,0,0.054320987654320974,52.09382716049381,0)" xlink:href="#bY"/><use transform="matrix(0.054320987654320974,0,0,0.054320987654320974,56.38518518518517,0)" xlink:href="#cw"/><use transform="matrix(0.054320987654320974,0,0,0.054320987654320974,66.16296296296294,0)" xlink:href="#bY"/><use transform="matrix(0.054320987654320974,0,0,0.054320987654320974,70.4543209876543,0)" xlink:href="#cx"/><use transform="matrix(0.054320987654320974,0,0,0.054320987654320974,80.23209876543207,0)" xlink:href="#bW"/></g><g id="U"><use transform="matrix(0.054320987654320974,0,0,0.054320987654320974,0,0)" xlink:href="#cs"/><use transform="matrix(0.054320987654320974,0,0,0.054320987654320974,5.432098765432097,0)" xlink:href="#cb"/></g><path fill="#1f1f1f" d="M115-194c53 0 69 39 70 98 0 66-23 100-70 100C84 3 66-7 56-30L54 0H23l1-261h32v101c10-23 28-34 59-34zm-8 174c40 0 45-34 45-75 0-40-5-75-45-74-42 0-51 32-51 76 0 43 10 73 51 73" id="cy"/><g id="V"><use transform="matrix(0.054320987654320974,0,0,0.054320987654320974,0,0)" xlink:href="#bU"/><use transform="matrix(0.054320987654320974,0,0,0.054320987654320974,10.864197530864194,0)" xlink:href="#bV"/><use transform="matrix(0.054320987654320974,0,0,0.054320987654320974,17.32839506172839,0)" xlink:href="#bW"/><use transform="matrix(0.054320987654320974,0,0,0.054320987654320974,28.192592592592586,0)" xlink:href="#cu"/><use transform="matrix(0.054320987654320974,0,0,0.054320987654320974,37.97037037037036,0)" xlink:href="#ct"/><use transform="matrix(0.054320987654320974,0,0,0.054320987654320974,47.74814814814813,0)" xlink:href="#bV"/><use transform="matrix(0.054320987654320974,0,0,0.054320987654320974,54.21234567901233,0)" xlink:href="#bY"/><use transform="matrix(0.054320987654320974,0,0,0.054320987654320974,58.503703703703685,0)" xlink:href="#cy"/><use transform="matrix(0.054320987654320974,0,0,0.054320987654320974,69.36790123456788,0)" xlink:href="#bW"/></g><g id="W"><use transform="matrix(0.054320987654320974,0,0,0.054320987654320974,0,0)" xlink:href="#cs"/><use transform="matrix(0.054320987654320974,0,0,0.054320987654320974,5.432098765432097,0)" xlink:href="#ca"/><use transform="matrix(0.054320987654320974,0,0,0.054320987654320974,16.29629629629629,0)" xlink:href="#bW"/><use transform="matrix(0.054320987654320974,0,0,0.054320987654320974,27.160493827160487,0)" xlink:href="#bY"/><use transform="matrix(0.054320987654320974,0,0,0.054320987654320974,31.451851851851842,0)" xlink:href="#bV"/></g><path fill="#1f1f1f" d="M177-190C167-65 218 103 67 71c-23-6-38-20-44-43l32-5c15 47 100 32 89-28v-30C133-14 115 1 83 1 29 1 15-40 15-95c0-56 16-97 71-98 29-1 48 16 59 35 1-10 0-23 2-32h30zM94-22c36 0 50-32 50-73 0-42-14-75-50-75-39 0-46 34-46 75s6 73 46 73" id="cz"/><g id="X"><use transform="matrix(0.054320987654320974,0,0,0.054320987654320974,0,0)" xlink:href="#cd"/><use transform="matrix(0.054320987654320974,0,0,0.054320987654320974,10.864197530864194,0)" xlink:href="#bV"/><use transform="matrix(0.054320987654320974,0,0,0.054320987654320974,17.32839506172839,0)" xlink:href="#bZ"/><use transform="matrix(0.054320987654320974,0,0,0.054320987654320974,28.192592592592586,0)" xlink:href="#cz"/></g><g id="Y"><use transform="matrix(0.054320987654320974,0,0,0.054320987654320974,0,0)" xlink:href="#cb"/><use transform="matrix(0.054320987654320974,0,0,0.054320987654320974,10.864197530864194,0)" xlink:href="#cw"/><use transform="matrix(0.054320987654320974,0,0,0.054320987654320974,20.641975308641968,0)" xlink:href="#bW"/><use transform="matrix(0.054320987654320974,0,0,0.054320987654320974,31.506172839506164,0)" xlink:href="#bV"/></g><g id="Z"><use transform="matrix(0.054320987654320974,0,0,0.054320987654320974,0,0)" xlink:href="#cb"/><use transform="matrix(0.054320987654320974,0,0,0.054320987654320974,10.864197530864194,0)" xlink:href="#cs"/><use transform="matrix(0.054320987654320974,0,0,0.054320987654320974,16.29629629629629,0)" xlink:href="#ca"/><use transform="matrix(0.054320987654320974,0,0,0.054320987654320974,27.160493827160487,0)" xlink:href="#bW"/><use transform="matrix(0.054320987654320974,0,0,0.054320987654320974,38.02469135802468,0)" xlink:href="#bV"/><use transform="matrix(0.054320987654320974,0,0,0.054320987654320974,44.48888888888888,0)" xlink:href="#cu"/></g><path fill="#3a414a" d="M186 0v-106H76V0H24v-248h52v99h110v-99h50V0h-50" id="cA"/><path fill="#3a414a" d="M128 0H69L1-190h53L99-40l48-150h52" id="cB"/><g id="aa"><use transform="matrix(0.04938271604938272,0,0,0.04938271604938272,0,0)" xlink:href="#cA"/><use transform="matrix(0.04938271604938272,0,0,0.04938271604938272,12.790123456790125,0)" xlink:href="#cf"/><use transform="matrix(0.04938271604938272,0,0,0.04938271604938272,22.66666666666667,0)" xlink:href="#cB"/><use transform="matrix(0.04938271604938272,0,0,0.04938271604938272,32.543209876543216,0)" xlink:href="#ch"/></g><g id="ab"><use transform="matrix(0.04938271604938272,0,0,0.04938271604938272,0,0)" xlink:href="#cl"/><use transform="matrix(0.04938271604938272,0,0,0.04938271604938272,5.8765432098765435,0)" xlink:href="#cj"/></g><g id="ac"><use transform="matrix(0.04938271604938272,0,0,0.04938271604938272,0,0)" xlink:href="#ce"/><use transform="matrix(0.04938271604938272,0,0,0.04938271604938272,10.814814814814815,0)" xlink:href="#cf"/><use transform="matrix(0.04938271604938272,0,0,0.04938271604938272,20.69135802469136,0)" xlink:href="#cg"/></g><path fill="#3a414a" d="M25-224v-37h50v37H25zM25 0v-190h50V0H25" id="cC"/><g id="ad"><use transform="matrix(0.04938271604938272,0,0,0.04938271604938272,0,0)" xlink:href="#cC"/><use transform="matrix(0.04938271604938272,0,0,0.04938271604938272,4.938271604938272,0)" xlink:href="#cp"/></g><g id="ae"><use transform="matrix(0.04938271604938272,0,0,0.04938271604938272,0,0)" xlink:href="#ck"/><use transform="matrix(0.04938271604938272,0,0,0.04938271604938272,10.814814814814815,0)" xlink:href="#cj"/><use transform="matrix(0.04938271604938272,0,0,0.04938271604938272,21.62962962962963,0)" xlink:href="#cl"/></g><path fill="#3a414a" d="M85 4C-2 5 27-109 22-190h50c7 57-23 150 33 157 60-5 35-97 40-157h50l1 190h-47c-2-12 1-28-3-38-12 25-28 42-61 42" id="cD"/><path fill="#3a414a" d="M135-150c-39-12-60 13-60 57V0H25l-1-190h47c2 13-1 29 3 40 6-28 27-53 61-41v41" id="cE"/><path fill="#3a414a" d="M88-194c31-1 46 15 58 34l-1-101h50l1 261h-48c-2-10 0-23-3-31C134-8 116 4 84 4 32 4 16-41 15-95c0-56 19-97 73-99zm17 164c33 0 40-30 41-66 1-37-9-64-41-64s-38 30-39 65c0 43 13 65 39 65" id="cF"/><g id="af"><use transform="matrix(0.04938271604938272,0,0,0.04938271604938272,0,0)" xlink:href="#cC"/><use transform="matrix(0.04938271604938272,0,0,0.04938271604938272,4.938271604938272,0)" xlink:href="#ck"/><use transform="matrix(0.04938271604938272,0,0,0.04938271604938272,15.753086419753087,0)" xlink:href="#ci"/><use transform="matrix(0.04938271604938272,0,0,0.04938271604938272,25.629629629629633,0)" xlink:href="#cD"/><use transform="matrix(0.04938271604938272,0,0,0.04938271604938272,36.44444444444445,0)" xlink:href="#cE"/><use transform="matrix(0.04938271604938272,0,0,0.04938271604938272,43.35802469135803,0)" xlink:href="#ch"/><use transform="matrix(0.04938271604938272,0,0,0.04938271604938272,53.23456790123457,0)" xlink:href="#cF"/></g><g id="ag"><use transform="matrix(0.04938271604938272,0,0,0.04938271604938272,0,0)" xlink:href="#bi"/><use transform="matrix(0.04938271604938272,0,0,0.04938271604938272,11.851851851851853,0)" xlink:href="#bj"/><use transform="matrix(0.04938271604938272,0,0,0.04938271604938272,18.765432098765434,0)" xlink:href="#bm"/><use transform="matrix(0.04938271604938272,0,0,0.04938271604938272,23.703703703703706,0)" xlink:href="#bp"/><use transform="matrix(0.04938271604938272,0,0,0.04938271604938272,33.580246913580254,0)" xlink:href="#bv"/><use transform="matrix(0.04938271604938272,0,0,0.04938271604938272,43.4567901234568,0)" xlink:href="#bj"/><use transform="matrix(0.04938271604938272,0,0,0.04938271604938272,50.37037037037038,0)" xlink:href="#bm"/><use transform="matrix(0.04938271604938272,0,0,0.04938271604938272,55.30864197530866,0)" xlink:href="#bw"/><use transform="matrix(0.04938271604938272,0,0,0.04938271604938272,66.12345679012347,0)" xlink:href="#bo"/></g><path fill="#333" d="M220-157c-53 9-28 100-34 157h-49v-107c1-27-5-49-29-50C55-147 81-57 75 0H25l-1-190h47c2 12-1 28 3 38 10-53 101-56 108 0 13-22 24-43 59-42 82 1 51 116 57 194h-49v-107c-1-25-5-48-29-50" id="cG"/><g id="ah"><use transform="matrix(0.04938271604938272,0,0,0.04938271604938272,0,0)" xlink:href="#cG"/><use transform="matrix(0.04938271604938272,0,0,0.04938271604938272,15.80246913580247,0)" xlink:href="#bk"/><use transform="matrix(0.04938271604938272,0,0,0.04938271604938272,26.617283950617285,0)" xlink:href="#bp"/><use transform="matrix(0.04938271604938272,0,0,0.04938271604938272,36.49382716049383,0)" xlink:href="#bt"/></g><g id="ai"><use transform="matrix(0.04938271604938272,0,0,0.04938271604938272,0,0)" xlink:href="#bR"/><use transform="matrix(0.04938271604938272,0,0,0.04938271604938272,10.814814814814815,0)" xlink:href="#bk"/><use transform="matrix(0.04938271604938272,0,0,0.04938271604938272,21.62962962962963,0)" xlink:href="#bp"/><use transform="matrix(0.04938271604938272,0,0,0.04938271604938272,31.506172839506174,0)" xlink:href="#bp"/><use transform="matrix(0.04938271604938272,0,0,0.04938271604938272,41.38271604938272,0)" xlink:href="#bm"/><use transform="matrix(0.04938271604938272,0,0,0.04938271604938272,46.320987654320994,0)" xlink:href="#bw"/><use transform="matrix(0.04938271604938272,0,0,0.04938271604938272,57.135802469135804,0)" xlink:href="#bs"/><use transform="matrix(0.04938271604938272,0,0,0.04938271604938272,62.074074074074076,0)" xlink:href="#bo"/></g><path fill="#333" d="M144 0l-44-69L55 0H2l70-98-66-92h53l41 62 40-62h54l-67 91 71 99h-54" id="cH"/><g id="aj"><use transform="matrix(0.04938271604938272,0,0,0.04938271604938272,0,0)" xlink:href="#bo"/><use transform="matrix(0.04938271604938272,0,0,0.04938271604938272,9.876543209876544,0)" xlink:href="#cH"/><use transform="matrix(0.04938271604938272,0,0,0.04938271604938272,19.75308641975309,0)" xlink:href="#bR"/><use transform="matrix(0.04938271604938272,0,0,0.04938271604938272,30.567901234567906,0)" xlink:href="#bo"/><use transform="matrix(0.04938271604938272,0,0,0.04938271604938272,40.44444444444445,0)" xlink:href="#bx"/><use transform="matrix(0.04938271604938272,0,0,0.04938271604938272,51.25925925925927,0)" xlink:href="#bp"/><use transform="matrix(0.04938271604938272,0,0,0.04938271604938272,61.13580246913581,0)" xlink:href="#bm"/><use transform="matrix(0.04938271604938272,0,0,0.04938271604938272,66.07407407407408,0)" xlink:href="#bl"/><use transform="matrix(0.04938271604938272,0,0,0.04938271604938272,75.95061728395062,0)" xlink:href="#bo"/></g><g id="ak"><use transform="matrix(0.04938271604938272,0,0,0.04938271604938272,0,0)" xlink:href="#bv"/><use transform="matrix(0.04938271604938272,0,0,0.04938271604938272,9.876543209876544,0)" xlink:href="#br"/><use transform="matrix(0.04938271604938272,0,0,0.04938271604938272,19.75308641975309,0)" xlink:href="#bj"/><use transform="matrix(0.04938271604938272,0,0,0.04938271604938272,26.666666666666668,0)" xlink:href="#bo"/></g><g id="al"><use transform="matrix(0.04938271604938272,0,0,0.04938271604938272,0,0)" xlink:href="#bR"/><use transform="matrix(0.04938271604938272,0,0,0.04938271604938272,10.814814814814815,0)" xlink:href="#bj"/><use transform="matrix(0.04938271604938272,0,0,0.04938271604938272,17.728395061728396,0)" xlink:href="#bk"/><use transform="matrix(0.04938271604938272,0,0,0.04938271604938272,28.543209876543205,0)" xlink:href="#bl"/><use transform="matrix(0.04938271604938272,0,0,0.04938271604938272,38.41975308641975,0)" xlink:href="#bm"/><use transform="matrix(0.04938271604938272,0,0,0.04938271604938272,43.358024691358025,0)" xlink:href="#bn"/><use transform="matrix(0.04938271604938272,0,0,0.04938271604938272,54.17283950617284,0)" xlink:href="#bo"/><use transform="matrix(0.04938271604938272,0,0,0.04938271604938272,64.0493827160494,0)" xlink:href="#bj"/></g><path fill="#333" d="M12 0v-35l95-120H19v-35h142v35L67-36h103V0H12" id="cI"/><g id="am"><use transform="matrix(0.04938271604938272,0,0,0.04938271604938272,0,0)" xlink:href="#cG"/><use transform="matrix(0.04938271604938272,0,0,0.04938271604938272,15.80246913580247,0)" xlink:href="#br"/><use transform="matrix(0.04938271604938272,0,0,0.04938271604938272,25.679012345679016,0)" xlink:href="#cH"/><use transform="matrix(0.04938271604938272,0,0,0.04938271604938272,35.55555555555556,0)" xlink:href="#bm"/><use transform="matrix(0.04938271604938272,0,0,0.04938271604938272,40.49382716049383,0)" xlink:href="#cG"/><use transform="matrix(0.04938271604938272,0,0,0.04938271604938272,56.2962962962963,0)" xlink:href="#bm"/><use transform="matrix(0.04938271604938272,0,0,0.04938271604938272,61.23456790123457,0)" xlink:href="#cI"/><use transform="matrix(0.04938271604938272,0,0,0.04938271604938272,70.12345679012346,0)" xlink:href="#bo"/></g><g id="an"><use transform="matrix(0.04938271604938272,0,0,0.04938271604938272,0,0)" xlink:href="#bR"/><use transform="matrix(0.04938271604938272,0,0,0.04938271604938272,10.814814814814815,0)" xlink:href="#bj"/><use transform="matrix(0.04938271604938272,0,0,0.04938271604938272,17.728395061728396,0)" xlink:href="#bk"/><use transform="matrix(0.04938271604938272,0,0,0.04938271604938272,28.543209876543205,0)" xlink:href="#by"/><use transform="matrix(0.04938271604938272,0,0,0.04938271604938272,34.41975308641975,0)" xlink:href="#bm"/><use transform="matrix(0.04938271604938272,0,0,0.04938271604938272,39.358024691358025,0)" xlink:href="#bt"/></g><g id="ao"><use transform="matrix(0.04938271604938272,0,0,0.04938271604938272,0,0)" xlink:href="#by"/><use transform="matrix(0.04938271604938272,0,0,0.04938271604938272,5.8765432098765435,0)" xlink:href="#bm"/><use transform="matrix(0.04938271604938272,0,0,0.04938271604938272,10.814814814814817,0)" xlink:href="#bo"/><use transform="matrix(0.04938271604938272,0,0,0.04938271604938272,20.69135802469136,0)" xlink:href="#bj"/><use transform="matrix(0.04938271604938272,0,0,0.04938271604938272,27.604938271604947,0)" xlink:href="#bv"/><use transform="matrix(0.04938271604938272,0,0,0.04938271604938272,37.48148148148149,0)" xlink:href="#bo"/></g><g id="ap"><use transform="matrix(0.04938271604938272,0,0,0.04938271604938272,0,0)" xlink:href="#bv"/><use transform="matrix(0.04938271604938272,0,0,0.04938271604938272,9.876543209876544,0)" xlink:href="#bk"/><use transform="matrix(0.04938271604938272,0,0,0.04938271604938272,20.69135802469136,0)" xlink:href="#cG"/><use transform="matrix(0.04938271604938272,0,0,0.04938271604938272,36.49382716049383,0)" xlink:href="#bR"/><use transform="matrix(0.04938271604938272,0,0,0.04938271604938272,47.308641975308646,0)" xlink:href="#bo"/><use transform="matrix(0.04938271604938272,0,0,0.04938271604938272,57.18518518518519,0)" xlink:href="#bt"/><use transform="matrix(0.04938271604938272,0,0,0.04938271604938272,63.061728395061735,0)" xlink:href="#bm"/><use transform="matrix(0.04938271604938272,0,0,0.04938271604938272,68,0)" xlink:href="#bt"/><use transform="matrix(0.04938271604938272,0,0,0.04938271604938272,73.87654320987654,0)" xlink:href="#bm"/><use transform="matrix(0.04938271604938272,0,0,0.04938271604938272,78.81481481481481,0)" xlink:href="#bk"/><use transform="matrix(0.04938271604938272,0,0,0.04938271604938272,89.62962962962962,0)" xlink:href="#bx"/></g><g id="aq"><use transform="matrix(0.04938271604938272,0,0,0.04938271604938272,0,0)" xlink:href="#br"/><use transform="matrix(0.04938271604938272,0,0,0.04938271604938272,9.876543209876544,0)" xlink:href="#cG"/><use transform="matrix(0.04938271604938272,0,0,0.04938271604938272,25.679012345679016,0)" xlink:href="#bk"/><use transform="matrix(0.04938271604938272,0,0,0.04938271604938272,36.49382716049383,0)" xlink:href="#bx"/><use transform="matrix(0.04938271604938272,0,0,0.04938271604938272,47.308641975308646,0)" xlink:href="#bO"/></g><g id="ar"><use transform="matrix(0.04938271604938272,0,0,0.04938271604938272,0,0)" xlink:href="#bv"/><use transform="matrix(0.04938271604938272,0,0,0.04938271604938272,9.876543209876544,0)" xlink:href="#bk"/><use transform="matrix(0.04938271604938272,0,0,0.04938271604938272,20.69135802469136,0)" xlink:href="#cG"/><use transform="matrix(0.04938271604938272,0,0,0.04938271604938272,36.49382716049383,0)" xlink:href="#bR"/><use transform="matrix(0.04938271604938272,0,0,0.04938271604938272,47.308641975308646,0)" xlink:href="#br"/><use transform="matrix(0.04938271604938272,0,0,0.04938271604938272,57.18518518518519,0)" xlink:href="#bx"/><use transform="matrix(0.04938271604938272,0,0,0.04938271604938272,68,0)" xlink:href="#bm"/><use transform="matrix(0.04938271604938272,0,0,0.04938271604938272,72.93827160493828,0)" xlink:href="#bo"/><use transform="matrix(0.04938271604938272,0,0,0.04938271604938272,82.81481481481482,0)" xlink:href="#bp"/></g><path fill="#333" d="M76-208v77h127v40H76V0H24v-248h183v40H76" id="cJ"/><g id="as"><use transform="matrix(0.04938271604938272,0,0,0.04938271604938272,0,0)" xlink:href="#cJ"/><use transform="matrix(0.04938271604938272,0,0,0.04938271604938272,10.814814814814815,0)" xlink:href="#bo"/><use transform="matrix(0.04938271604938272,0,0,0.04938271604938272,20.69135802469136,0)" xlink:href="#br"/><use transform="matrix(0.04938271604938272,0,0,0.04938271604938272,30.567901234567906,0)" xlink:href="#bj"/></g><g id="at"><use transform="matrix(0.04938271604938272,0,0,0.04938271604938272,0,0)" xlink:href="#cq"/><use transform="matrix(0.04938271604938272,0,0,0.04938271604938272,10.814814814814815,0)" xlink:href="#br"/><use transform="matrix(0.04938271604938272,0,0,0.04938271604938272,20.69135802469136,0)" xlink:href="#bP"/><use transform="matrix(0.04938271604938272,0,0,0.04938271604938272,34.51851851851852,0)" xlink:href="#bp"/><use transform="matrix(0.04938271604938272,0,0,0.04938271604938272,44.39506172839506,0)" xlink:href="#bQ"/><use transform="matrix(0.04938271604938272,0,0,0.04938271604938272,55.20987654320988,0)" xlink:href="#bm"/><use transform="matrix(0.04938271604938272,0,0,0.04938271604938272,60.14814814814815,0)" xlink:href="#bt"/><use transform="matrix(0.04938271604938272,0,0,0.04938271604938272,66.0246913580247,0)" xlink:href="#bo"/><use transform="matrix(0.04938271604938272,0,0,0.04938271604938272,75.90123456790124,0)" xlink:href="#bp"/></g><path fill="#333" d="M199 0l-22-63H83L61 0H9l90-248h61L250 0h-51zm-33-102l-36-108c-10 38-24 72-36 108h72" id="cK"/><g id="au"><use transform="matrix(0.04938271604938272,0,0,0.04938271604938272,0,0)" xlink:href="#cK"/><use transform="matrix(0.04938271604938272,0,0,0.04938271604938272,12.14814814814815,0)" xlink:href="#bl"/><use transform="matrix(0.04938271604938272,0,0,0.04938271604938272,22.024691358024697,0)" xlink:href="#bk"/><use transform="matrix(0.04938271604938272,0,0,0.04938271604938272,32.83950617283951,0)" xlink:href="#bm"/><use transform="matrix(0.04938271604938272,0,0,0.04938271604938272,37.777777777777786,0)" xlink:href="#bn"/><use transform="matrix(0.04938271604938272,0,0,0.04938271604938272,48.5925925925926,0)" xlink:href="#bp"/></g><g id="av"><use transform="matrix(0.04938271604938272,0,0,0.04938271604938272,0,0)" xlink:href="#bt"/><use transform="matrix(0.04938271604938272,0,0,0.04938271604938272,5.8765432098765435,0)" xlink:href="#bu"/><use transform="matrix(0.04938271604938272,0,0,0.04938271604938272,16.691358024691358,0)" xlink:href="#bo"/></g><g id="aw"><use transform="matrix(0.04938271604938272,0,0,0.04938271604938272,0,0)" xlink:href="#bq"/><use transform="matrix(0.04938271604938272,0,0,0.04938271604938272,12.790123456790125,0)" xlink:href="#bm"/><use transform="matrix(0.04938271604938272,0,0,0.04938271604938272,17.7283950617284,0)" xlink:href="#bO"/><use transform="matrix(0.04938271604938272,0,0,0.04938271604938272,28.54320987654322,0)" xlink:href="#bu"/></g><g id="ax"><use transform="matrix(0.04938271604938272,0,0,0.04938271604938272,0,0)" xlink:href="#bj"/><use transform="matrix(0.04938271604938272,0,0,0.04938271604938272,6.913580246913581,0)" xlink:href="#bm"/><use transform="matrix(0.04938271604938272,0,0,0.04938271604938272,11.851851851851853,0)" xlink:href="#bp"/><use transform="matrix(0.04938271604938272,0,0,0.04938271604938272,21.7283950617284,0)" xlink:href="#cr"/></g><g id="ay"><use transform="matrix(0.04938271604938272,0,0,0.04938271604938272,0,0)" xlink:href="#bi"/><use transform="matrix(0.04938271604938272,0,0,0.04938271604938272,11.851851851851853,0)" xlink:href="#br"/><use transform="matrix(0.04938271604938272,0,0,0.04938271604938272,21.7283950617284,0)" xlink:href="#bt"/><use transform="matrix(0.04938271604938272,0,0,0.04938271604938272,27.604938271604947,0)" xlink:href="#bm"/><use transform="matrix(0.04938271604938272,0,0,0.04938271604938272,32.543209876543216,0)" xlink:href="#bo"/><use transform="matrix(0.04938271604938272,0,0,0.04938271604938272,42.41975308641976,0)" xlink:href="#bx"/><use transform="matrix(0.04938271604938272,0,0,0.04938271604938272,53.23456790123457,0)" xlink:href="#bt"/><use transform="matrix(0.04938271604938272,0,0,0.04938271604938272,59.111111111111114,0)" xlink:href="#bp"/></g><g id="az"><use transform="matrix(0.06172839506172839,0,0,0.06172839506172839,0,0)" xlink:href="#aU"/><use transform="matrix(0.06172839506172839,0,0,0.06172839506172839,15.987654320987653,0)" xlink:href="#aH"/><use transform="matrix(0.06172839506172839,0,0,0.06172839506172839,28.333333333333332,0)" xlink:href="#aW"/><use transform="matrix(0.06172839506172839,0,0,0.06172839506172839,40.67901234567901,0)" xlink:href="#aJ"/><use transform="matrix(0.06172839506172839,0,0,0.06172839506172839,45.55555555555556,0)" xlink:href="#aI"/><use transform="matrix(0.06172839506172839,0,0,0.06172839506172839,51.7283950617284,0)" xlink:href="#aH"/><use transform="matrix(0.06172839506172839,0,0,0.06172839506172839,64.07407407407408,0)" xlink:href="#bb"/></g><path fill="#3a414a" d="M240 0l2-218c-23 76-54 145-80 218h-23L58-218 59 0H30v-248h44l77 211c21-75 51-140 76-211h43V0h-30" id="cL"/><path fill="#3a414a" d="M143 0L79-87 56-68V0H24v-261h32v163l83-92h37l-77 82L181 0h-38" id="cM"/><g id="aA"><use transform="matrix(0.06172839506172839,0,0,0.06172839506172839,0,0)" xlink:href="#cL"/><use transform="matrix(0.06172839506172839,0,0,0.06172839506172839,18.456790123456788,0)" xlink:href="#aH"/><use transform="matrix(0.06172839506172839,0,0,0.06172839506172839,30.80246913580247,0)" xlink:href="#aO"/><use transform="matrix(0.06172839506172839,0,0,0.06172839506172839,38.148148148148145,0)" xlink:href="#cM"/><use transform="matrix(0.06172839506172839,0,0,0.06172839506172839,49.25925925925925,0)" xlink:href="#aK"/><use transform="matrix(0.06172839506172839,0,0,0.06172839506172839,61.60493827160493,0)" xlink:href="#aI"/></g><path fill="#333" d="M24 0v-248h52V0H24" id="cN"/><g id="aB"><use transform="matrix(0.04938271604938272,0,0,0.04938271604938272,0,0)" xlink:href="#cN"/><use transform="matrix(0.04938271604938272,0,0,0.04938271604938272,4.938271604938272,0)" xlink:href="#bx"/><use transform="matrix(0.04938271604938272,0,0,0.04938271604938272,15.753086419753087,0)" xlink:href="#bl"/><use transform="matrix(0.04938271604938272,0,0,0.04938271604938272,25.629629629629633,0)" xlink:href="#bo"/><use transform="matrix(0.04938271604938272,0,0,0.04938271604938272,35.50617283950618,0)" xlink:href="#bp"/><use transform="matrix(0.04938271604938272,0,0,0.04938271604938272,45.38271604938272,0)" xlink:href="#bt"/></g><path fill="#333" d="M4 7l51-268h42L46 7H4" id="cO"/><path fill="#333" d="M67-125c0 53 21 87 73 88 37 1 54-22 65-47l45 17C233-25 199 4 140 4 58 4 20-42 15-125 8-235 124-281 211-232c18 10 29 29 36 50l-46 12c-8-25-30-41-62-41-52 0-71 34-72 86" id="cP"/><g id="aC"><use transform="matrix(0.04938271604938272,0,0,0.04938271604938272,0,0)" xlink:href="#bm"/><use transform="matrix(0.04938271604938272,0,0,0.04938271604938272,4.938271604938272,0)" xlink:href="#bx"/><use transform="matrix(0.04938271604938272,0,0,0.04938271604938272,15.753086419753087,0)" xlink:href="#bt"/><use transform="matrix(0.04938271604938272,0,0,0.04938271604938272,21.62962962962963,0)" xlink:href="#bj"/><use transform="matrix(0.04938271604938272,0,0,0.04938271604938272,28.543209876543205,0)" xlink:href="#bo"/><use transform="matrix(0.04938271604938272,0,0,0.04938271604938272,38.41975308641975,0)" xlink:href="#bp"/><use transform="matrix(0.04938271604938272,0,0,0.04938271604938272,48.2962962962963,0)" xlink:href="#bt"/><use transform="matrix(0.04938271604938272,0,0,0.04938271604938272,54.17283950617284,0)" xlink:href="#cO"/><use transform="matrix(0.04938271604938272,0,0,0.04938271604938272,59.111111111111114,0)" xlink:href="#cP"/><use transform="matrix(0.04938271604938272,0,0,0.04938271604938272,71.90123456790124,0)" xlink:href="#br"/><use transform="matrix(0.04938271604938272,0,0,0.04938271604938272,81.77777777777779,0)" xlink:href="#bR"/><use transform="matrix(0.04938271604938272,0,0,0.04938271604938272,92.5925925925926,0)" xlink:href="#bm"/><use transform="matrix(0.04938271604938272,0,0,0.04938271604938272,97.53086419753086,0)" xlink:href="#bt"/><use transform="matrix(0.04938271604938272,0,0,0.04938271604938272,103.40740740740739,0)" xlink:href="#br"/><use transform="matrix(0.04938271604938272,0,0,0.04938271604938272,113.28395061728396,0)" xlink:href="#bs"/></g><path fill="#333" d="M67-125c0 54 23 88 75 88 28 0 53-7 68-21v-34h-60v-39h108v91C232-14 192 4 140 4 58 4 20-42 15-125 8-236 126-280 215-234c19 10 29 26 37 47l-47 15c-11-23-29-39-63-39-53 1-75 33-75 86" id="cQ"/><g id="aD"><use transform="matrix(0.04938271604938272,0,0,0.04938271604938272,0,0)" xlink:href="#cQ"/><use transform="matrix(0.04938271604938272,0,0,0.04938271604938272,13.827160493827162,0)" xlink:href="#br"/><use transform="matrix(0.04938271604938272,0,0,0.04938271604938272,23.703703703703706,0)" xlink:href="#bm"/><use transform="matrix(0.04938271604938272,0,0,0.04938271604938272,28.641975308641978,0)" xlink:href="#bx"/></g><g id="aE"><use transform="matrix(0.04938271604938272,0,0,0.04938271604938272,0,0)" xlink:href="#cG"/><use transform="matrix(0.04938271604938272,0,0,0.04938271604938272,15.80246913580247,0)" xlink:href="#br"/><use transform="matrix(0.04938271604938272,0,0,0.04938271604938272,25.679012345679016,0)" xlink:href="#cH"/><use transform="matrix(0.04938271604938272,0,0,0.04938271604938272,35.55555555555556,0)" xlink:href="#bm"/><use transform="matrix(0.04938271604938272,0,0,0.04938271604938272,40.49382716049383,0)" xlink:href="#cG"/><use transform="matrix(0.04938271604938272,0,0,0.04938271604938272,56.2962962962963,0)" xlink:href="#bm"/><use transform="matrix(0.04938271604938272,0,0,0.04938271604938272,61.23456790123457,0)" xlink:href="#cI"/><use transform="matrix(0.04938271604938272,0,0,0.04938271604938272,70.12345679012346,0)" xlink:href="#bo"/></g><g id="aF"><use transform="matrix(0.04938271604938272,0,0,0.04938271604938272,0,0)" xlink:href="#bq"/><use transform="matrix(0.04938271604938272,0,0,0.04938271604938272,12.790123456790125,0)" xlink:href="#bo"/><use transform="matrix(0.04938271604938272,0,0,0.04938271604938272,22.66666666666667,0)" xlink:href="#br"/><use transform="matrix(0.04938271604938272,0,0,0.04938271604938272,32.543209876543216,0)" xlink:href="#bs"/><use transform="matrix(0.04938271604938272,0,0,0.04938271604938272,37.48148148148149,0)" xlink:href="#bt"/><use transform="matrix(0.04938271604938272,0,0,0.04938271604938272,43.35802469135803,0)" xlink:href="#bu"/></g></defs></g></svg>